<svg id="Layer_1" data-name="Layer 1" xmlns="http://www.w3.org/2000/svg" viewBox="0 0 359.13 385.08"><defs><style>.cls-1,.cls-3,.cls-7{fill:#75a82d;}.cls-2{fill:#a2e840;}.cls-3{font-size:48px;font-family:AvenirNext-Heavy, Avenir Next;letter-spacing:0.01em;}.cls-4{letter-spacing:0em;}.cls-5{fill:#588211;}.cls-6{fill:none;}.cls-7{stroke:#75a82d;stroke-miterlimit:10;}</style></defs><title>arrow</title><polyline class="cls-1" points="335.39 107 354.39 129 301.39 163"/><path class="cls-1" d="M201.55,122.94a44.57,44.57,0,0,1,15.58,6.88c14.08,9.83,17.93,25,18.9,29.45L57.46,297.62,38.1,272.26,17.61,387.35l130.63,1.73-19.48-22.2c136.83-101.55,230.81-185,231.92-207a57.7,57.7,0,0,0-4.5-25.16c-4.9-10.33-12.5-16.39-18.88-20.91-28.47-20.17-77.13-41.14-84.83-44.43Z" transform="translate(-1.61 -4)"/><polygon class="cls-1" points="192.39 40 250.39 65 200.39 119 147.39 104 147.39 19 192.39 40"/><polyline class="cls-1" points="22.56 345.5 0.39 365 16.39 384"/><polyline class="cls-1" points="131.39 83 147.39 105 176.39 76"/><path class="cls-2" d="M341.5,89.5" transform="translate(-1.61 -4)"/><path class="cls-2" d="M185.55,103.94a44.57,44.57,0,0,1,15.58,6.88c14.08,9.83,17.93,25,18.9,29.45L41.46,278.62,22.1,253.26,1.61,368.35l130.63,1.73-19.48-22.2c136.83-101.55,230.81-185,231.92-207a57.7,57.7,0,0,0-4.5-25.16c-4.9-10.33-12.5-16.39-18.88-20.91-28.47-20.17-77.13-41.14-84.83-44.43Z" transform="translate(-1.61 -4)"/><text class="cls-3" transform="translate(66.17 333.53) rotate(-38.33)">CLIC<tspan class="cls-4" x="112.37" y="0">K</tspan><tspan x="148.75" y="0" xml:space="preserve"> HERE</tspan></text><polygon class="cls-2" points="176.39 21 234.39 46 184.39 100 131.39 85 131.39 0 176.39 21"/><path class="cls-5" d="M184,104" transform="translate(-1.61 -4)"/><path class="cls-2" d="M200.59,155.34" transform="translate(-1.61 -4)"/><path class="cls-6" d="M201,111c1,.41,12.42,5.36,14.78,17.12,2.1,10.44-3.85,21.76-14.78,26.88" transform="translate(-1.61 -4)"/><path class="cls-7" d="M666.5,281.5" transform="translate(-1.61 -4)"/><path class="cls-1" d="M200,123" transform="translate(-1.61 -4)"/><path class="cls-1" d="M216.59,174.34" transform="translate(-1.61 -4)"/></svg>