<?xml version="1.0" encoding="utf-8"?>
<!-- Generator: Adobe Illustrator 22.0.1, SVG Export Plug-In . SVG Version: 6.00 Build 0)  -->
<svg version="1.1" id="Layer_1" xmlns="http://www.w3.org/2000/svg" xmlns:xlink="http://www.w3.org/1999/xlink" x="0px" y="0px"
	 viewBox="0 0 434.9 911.3" style="enable-background:new 0 0 434.9 911.3;" xml:space="preserve">
<style type="text/css">
	.st0{fill:#CCBDAE;}
	.st1{fill:#AF9B8B;}
	.st2{fill:none;}
	.st3{fill:#FFF355;}
	.st4{fill:#787878;}
	.st5{fill:#FFB335;}
	.st6{fill:#0ACBFF;}
	.st7{fill:#8CFF7F;}
	.st8{fill:#C956FF;}
	.st9{fill:#323232;}
	.st10{fill:#BFB2A8;}
	.st11{opacity:0.9;fill:#FF4A73;enable-background:new    ;}
</style>
<g>
	<g>
		<rect x="73.6" y="213.8" class="st0" width="333" height="670"/>
		<path class="st1" d="M404.1,216.3v665h-328v-665L404.1,216.3 M409.1,211.3h-338v675h338V211.3L409.1,211.3z"/>
	</g>
	<g>
		<g>
			<path class="st0" d="M88.3,884.8c-8.6,0-15.6-7-15.6-15.6V36.4c0-8.6,7-15.6,15.6-15.6H392c8.6,0,15.6,7,15.6,15.6v832.7
				c0,8.6-7,15.6-15.6,15.6L88.3,884.8L88.3,884.8z"/>
			<path class="st1" d="M392,22.3c7.8,0,14.1,6.3,14.1,14.1v832.7c0,7.8-6.3,14.1-14.1,14.1H88.3c-7.8,0-14.1-6.3-14.1-14.1V36.4
				c0-7.8,6.3-14.1,14.1-14.1L392,22.3 M392,19.3H88.3c-9.5,0-17.1,7.7-17.1,17.1v832.7c0,9.5,7.7,17.1,17.1,17.1H392
				c9.5,0,17.1-7.7,17.1-17.1V36.4C409.1,27,401.4,19.3,392,19.3L392,19.3z"/>
		</g>
		<g>
			<rect x="74.2" y="728.2" class="st0" width="331.8" height="158.1"/>
		</g>
	</g>
</g>
<g>
	<g>
		<rect x="32.6" y="213.8" class="st0" width="333" height="670"/>
		<path class="st1" d="M363.1,216.3v665h-328v-665L363.1,216.3 M368.1,211.3h-338v675h338V211.3L368.1,211.3z"/>
	</g>
	<g>
		<g>
			<path class="st0" d="M47.3,884.8c-8.6,0-15.6-7-15.6-15.6V36.4c0-8.6,7-15.6,15.6-15.6H351c8.6,0,15.6,7,15.6,15.6v832.7
				c0,8.6-7,15.6-15.6,15.6L47.3,884.8L47.3,884.8z"/>
			<path class="st1" d="M351,22.3c7.8,0,14.1,6.3,14.1,14.1v832.7c0,7.8-6.3,14.1-14.1,14.1H47.3c-7.8,0-14.1-6.3-14.1-14.1V36.4
				c0-7.8,6.3-14.1,14.1-14.1L351,22.3 M351,19.3H47.3c-9.5,0-17.1,7.7-17.1,17.1v832.7c0,9.5,7.7,17.1,17.1,17.1H351
				c9.5,0,17.1-7.7,17.1-17.1V36.4C368.1,27,360.4,19.3,351,19.3L351,19.3z"/>
		</g>
		<g>
			<rect x="33.2" y="728.2" class="st0" width="331.8" height="158.1"/>
		</g>
	</g>
</g>
<g>
	<g>
		<rect x="53.6" y="213.8" class="st0" width="333" height="670"/>
		<path class="st1" d="M384.1,216.3v665h-328v-665L384.1,216.3 M389.1,211.3h-338v675h338V211.3L389.1,211.3z"/>
	</g>
	<g>
		<g>
			<path class="st0" d="M68.3,884.8c-8.6,0-15.6-7-15.6-15.6V36.4c0-8.6,7-15.6,15.6-15.6H372c8.6,0,15.6,7,15.6,15.6v832.7
				c0,8.6-7,15.6-15.6,15.6L68.3,884.8L68.3,884.8z"/>
			<path class="st1" d="M372,22.3c7.8,0,14.1,6.3,14.1,14.1v832.7c0,7.8-6.3,14.1-14.1,14.1H68.3c-7.8,0-14.1-6.3-14.1-14.1V36.4
				c0-7.8,6.3-14.1,14.1-14.1L372,22.3 M372,19.3H68.3c-9.5,0-17.1,7.7-17.1,17.1v832.7c0,9.5,7.7,17.1,17.1,17.1H372
				c9.5,0,17.1-7.7,17.1-17.1V36.4C389.1,27,381.4,19.3,372,19.3L372,19.3z"/>
		</g>
		<g>
			<rect x="54.2" y="728.2" class="st0" width="331.8" height="158.1"/>
		</g>
	</g>
</g>
<line class="st2" x1="-98.9" y1="228.3" x2="-98.9" y2="228.3"/>
<line class="st2" x1="-72.9" y1="218.3" x2="-72.9" y2="218.3"/>
<rect x="101.1" y="119.6" class="st1" width="26" height="4.2"/>
<rect x="137.1" y="119.6" class="st1" width="26" height="4.2"/>
<rect x="65.1" y="90.3" class="st3" width="26" height="27.7"/>
<rect x="65.1" y="119.6" class="st1" width="26" height="4.2"/>
<rect x="173.1" y="119.6" class="st1" width="26" height="4.2"/>
<rect x="209.1" y="119.6" class="st1" width="26" height="4.2"/>
<rect x="245.1" y="119.6" class="st1" width="26" height="4.2"/>
<rect x="280.1" y="119.6" class="st1" width="26" height="4.2"/>
<rect x="315.1" y="119.6" class="st1" width="26" height="4.2"/>
<rect x="349.1" y="119.6" class="st1" width="26" height="4.2"/>
<rect x="101.1" y="119.6" class="st1" width="26" height="4.2"/>
<rect x="137.1" y="90.3" class="st3" width="26" height="27.7"/>
<rect x="137.1" y="119.6" class="st1" width="26" height="4.2"/>
<rect x="173.1" y="90.3" class="st4" width="26" height="27.7"/>
<rect x="173.1" y="119.6" class="st1" width="26" height="4.2"/>
<rect x="209.1" y="90.3" class="st4" width="26" height="27.7"/>
<rect x="209.1" y="119.6" class="st1" width="26" height="4.2"/>
<rect x="280.1" y="90.3" class="st4" width="26" height="27.7"/>
<rect x="280.1" y="119.6" class="st1" width="26" height="4.2"/>
<rect x="245.1" y="90.3" class="st4" width="26" height="27.7"/>
<rect x="245.1" y="119.6" class="st1" width="26" height="4.2"/>
<rect x="280.1" y="90.3" class="st4" width="26" height="27.7"/>
<rect x="280.1" y="119.6" class="st1" width="26" height="4.2"/>
<rect x="315.1" y="90.3" class="st4" width="26" height="27.7"/>
<rect x="315.1" y="119.6" class="st1" width="26" height="4.2"/>
<rect x="349.1" y="90.3" class="st4" width="26" height="27.7"/>
<rect x="349.1" y="119.6" class="st1" width="26" height="4.2"/>
<rect x="101.1" y="157.3" class="st1" width="26" height="4.2"/>
<rect x="137.1" y="157.3" class="st1" width="26" height="4.2"/>
<rect x="65.1" y="128" class="st3" width="26" height="27.7"/>
<rect x="65.1" y="157.3" class="st1" width="26" height="4.2"/>
<rect x="173.1" y="157.3" class="st1" width="26" height="4.2"/>
<rect x="209.1" y="157.3" class="st1" width="26" height="4.2"/>
<rect x="245.1" y="157.3" class="st1" width="26" height="4.2"/>
<rect x="280.1" y="157.3" class="st1" width="26" height="4.2"/>
<rect x="315.1" y="157.3" class="st1" width="26" height="4.2"/>
<rect x="349.1" y="157.3" class="st1" width="26" height="4.2"/>
<rect x="101.1" y="157.3" class="st1" width="26" height="4.2"/>
<rect x="137.1" y="157.3" class="st1" width="26" height="4.2"/>
<rect x="173.1" y="157.3" class="st1" width="26" height="4.2"/>
<rect x="209.1" y="128" class="st4" width="26" height="27.7"/>
<rect x="209.1" y="157.3" class="st1" width="26" height="4.2"/>
<rect x="280.1" y="128" class="st4" width="26" height="27.7"/>
<rect x="280.1" y="157.3" class="st1" width="26" height="4.2"/>
<rect x="245.1" y="128" class="st4" width="26" height="27.7"/>
<rect x="245.1" y="157.3" class="st1" width="26" height="4.2"/>
<rect x="280.1" y="128" class="st4" width="26" height="27.7"/>
<rect x="280.1" y="157.3" class="st1" width="26" height="4.2"/>
<rect x="315.1" y="128" class="st4" width="26" height="27.7"/>
<rect x="315.1" y="157.3" class="st1" width="26" height="4.2"/>
<rect x="349.1" y="128" class="st4" width="26" height="27.7"/>
<rect x="349.1" y="157.3" class="st1" width="26" height="4.2"/>
<rect x="101.1" y="194.2" class="st1" width="26" height="4.2"/>
<rect x="137.1" y="194.2" class="st1" width="26" height="4.2"/>
<rect x="65.1" y="164.9" class="st4" width="26" height="27.7"/>
<rect x="65.1" y="194.2" class="st1" width="26" height="4.2"/>
<rect x="173.1" y="194.2" class="st1" width="26" height="4.2"/>
<rect x="209.1" y="194.2" class="st1" width="26" height="4.2"/>
<rect x="245.1" y="194.2" class="st1" width="26" height="4.2"/>
<rect x="280.1" y="194.2" class="st1" width="26" height="4.2"/>
<rect x="315.1" y="194.2" class="st1" width="26" height="4.2"/>
<rect x="349.1" y="194.2" class="st1" width="26" height="4.2"/>
<rect x="101.1" y="89.9" class="st3" width="26" height="27.7"/>
<rect x="101.1" y="194.2" class="st1" width="26" height="4.2"/>
<rect x="137.1" y="127.9" class="st4" width="26" height="27.7"/>
<rect x="137.1" y="194.2" class="st1" width="26" height="4.2"/>
<rect x="173.1" y="127.9" class="st4" width="26" height="27.7"/>
<rect x="173.1" y="194.2" class="st1" width="26" height="4.2"/>
<rect x="209.1" y="164.9" class="st4" width="26" height="27.7"/>
<rect x="209.1" y="194.2" class="st1" width="26" height="4.2"/>
<rect x="280.1" y="164.9" class="st4" width="26" height="27.7"/>
<rect x="280.1" y="194.2" class="st1" width="26" height="4.2"/>
<rect x="245.1" y="164.9" class="st4" width="26" height="27.7"/>
<rect x="245.1" y="194.2" class="st1" width="26" height="4.2"/>
<rect x="280.1" y="164.9" class="st4" width="26" height="27.7"/>
<rect x="280.1" y="194.2" class="st1" width="26" height="4.2"/>
<rect x="315.1" y="164.9" class="st4" width="26" height="27.7"/>
<rect x="315.1" y="194.2" class="st1" width="26" height="4.2"/>
<rect x="349.1" y="164.9" class="st4" width="26" height="27.7"/>
<rect x="349.1" y="194.2" class="st1" width="26" height="4.2"/>
<rect x="101.1" y="231.9" class="st1" width="26" height="4.2"/>
<rect x="137.1" y="231.9" class="st1" width="26" height="4.2"/>
<rect x="65.1" y="202.6" class="st4" width="26" height="27.7"/>
<rect x="65.1" y="231.9" class="st1" width="26" height="4.2"/>
<rect x="173.1" y="231.9" class="st1" width="26" height="4.2"/>
<rect x="209.1" y="231.9" class="st1" width="26" height="4.2"/>
<rect x="245.1" y="231.9" class="st1" width="26" height="4.2"/>
<rect x="280.1" y="231.9" class="st1" width="26" height="4.2"/>
<rect x="315.1" y="231.9" class="st1" width="26" height="4.2"/>
<rect x="349.1" y="231.9" class="st1" width="26" height="4.2"/>
<rect x="101.1" y="127.6" class="st4" width="26" height="27.7"/>
<rect x="101.1" y="231.9" class="st1" width="26" height="4.2"/>
<rect x="137.1" y="164.6" class="st4" width="26" height="27.7"/>
<rect x="137.1" y="231.9" class="st1" width="26" height="4.2"/>
<rect x="173.1" y="164.6" class="st4" width="26" height="27.7"/>
<rect x="173.1" y="231.9" class="st1" width="26" height="4.2"/>
<rect x="209.1" y="202.6" class="st4" width="26" height="27.7"/>
<rect x="209.1" y="231.9" class="st1" width="26" height="4.2"/>
<rect x="280.1" y="202.6" class="st4" width="26" height="27.7"/>
<rect x="280.1" y="231.9" class="st1" width="26" height="4.2"/>
<rect x="245.1" y="202.6" class="st4" width="26" height="27.7"/>
<rect x="245.1" y="231.9" class="st1" width="26" height="4.2"/>
<rect x="280.1" y="202.6" class="st4" width="26" height="27.7"/>
<rect x="280.1" y="231.9" class="st1" width="26" height="4.2"/>
<rect x="315.1" y="202.6" class="st4" width="26" height="27.7"/>
<rect x="315.1" y="231.9" class="st1" width="26" height="4.2"/>
<rect x="349.1" y="202.6" class="st4" width="26" height="27.7"/>
<rect x="349.1" y="231.9" class="st1" width="26" height="4.2"/>
<rect x="101.1" y="269.7" class="st1" width="26" height="4.2"/>
<rect x="137.1" y="269.7" class="st1" width="26" height="4.2"/>
<rect x="65.1" y="240.3" class="st4" width="26" height="27.7"/>
<rect x="65.1" y="269.7" class="st1" width="26" height="4.2"/>
<rect x="173.1" y="269.7" class="st1" width="26" height="4.2"/>
<rect x="209.1" y="269.7" class="st1" width="26" height="4.2"/>
<rect x="245.1" y="269.7" class="st1" width="26" height="4.2"/>
<rect x="280.1" y="269.7" class="st1" width="26" height="4.2"/>
<rect x="315.1" y="269.7" class="st1" width="26" height="4.2"/>
<rect x="349.1" y="269.7" class="st1" width="26" height="4.2"/>
<rect x="101.1" y="164.3" class="st4" width="26" height="27.7"/>
<rect x="101.1" y="269.7" class="st1" width="26" height="4.2"/>
<rect x="137.1" y="202.3" class="st4" width="26" height="27.7"/>
<rect x="137.1" y="269.7" class="st1" width="26" height="4.2"/>
<rect x="173.1" y="202.3" class="st4" width="26" height="27.7"/>
<rect x="173.1" y="269.7" class="st1" width="26" height="4.2"/>
<rect x="209.1" y="240.3" class="st4" width="26" height="27.7"/>
<rect x="209.1" y="269.7" class="st1" width="26" height="4.2"/>
<rect x="280.1" y="240.3" class="st4" width="26" height="27.7"/>
<rect x="280.1" y="269.7" class="st1" width="26" height="4.2"/>
<rect x="245.1" y="240.3" class="st4" width="26" height="27.7"/>
<rect x="245.1" y="269.7" class="st1" width="26" height="4.2"/>
<rect x="280.1" y="240.3" class="st4" width="26" height="27.7"/>
<rect x="280.1" y="269.7" class="st1" width="26" height="4.2"/>
<rect x="315.1" y="240.3" class="st4" width="26" height="27.7"/>
<rect x="315.1" y="269.7" class="st1" width="26" height="4.2"/>
<rect x="349.1" y="240.3" class="st4" width="26" height="27.7"/>
<rect x="349.1" y="269.7" class="st1" width="26" height="4.2"/>
<rect x="101.1" y="307.4" class="st1" width="26" height="4.2"/>
<rect x="137.1" y="307.4" class="st1" width="26" height="4.2"/>
<rect x="65.1" y="278.1" class="st4" width="26" height="27.7"/>
<rect x="65.1" y="307.4" class="st1" width="26" height="4.2"/>
<rect x="173.1" y="307.4" class="st1" width="26" height="4.2"/>
<rect x="209.1" y="307.4" class="st1" width="26" height="4.2"/>
<rect x="245.1" y="307.4" class="st1" width="26" height="4.2"/>
<rect x="280.1" y="307.4" class="st1" width="26" height="4.2"/>
<rect x="315.1" y="307.4" class="st1" width="26" height="4.2"/>
<rect x="349.1" y="307.4" class="st1" width="26" height="4.2"/>
<rect x="101.1" y="202.1" class="st4" width="26" height="27.7"/>
<rect x="101.1" y="307.4" class="st1" width="26" height="4.2"/>
<rect x="137.1" y="240.1" class="st4" width="26" height="27.7"/>
<rect x="137.1" y="307.4" class="st1" width="26" height="4.2"/>
<rect x="173.1" y="240.1" class="st4" width="26" height="27.7"/>
<rect x="173.1" y="307.4" class="st1" width="26" height="4.2"/>
<rect x="209.1" y="278.1" class="st4" width="26" height="27.7"/>
<rect x="209.1" y="307.4" class="st1" width="26" height="4.2"/>
<rect x="280.1" y="278.1" class="st4" width="26" height="27.7"/>
<rect x="280.1" y="307.4" class="st1" width="26" height="4.2"/>
<rect x="245.1" y="278.1" class="st4" width="26" height="27.7"/>
<rect x="245.1" y="307.4" class="st1" width="26" height="4.2"/>
<rect x="280.1" y="278.1" class="st4" width="26" height="27.7"/>
<rect x="280.1" y="307.4" class="st1" width="26" height="4.2"/>
<rect x="315.1" y="278.1" class="st4" width="26" height="27.7"/>
<rect x="315.1" y="307.4" class="st1" width="26" height="4.2"/>
<rect x="349.1" y="278.1" class="st4" width="26" height="27.7"/>
<rect x="349.1" y="307.4" class="st1" width="26" height="4.2"/>
<rect x="101.1" y="345.1" class="st1" width="26" height="4.2"/>
<rect x="137.1" y="345.1" class="st1" width="26" height="4.2"/>
<rect x="65.1" y="315.8" class="st4" width="26" height="27.7"/>
<rect x="65.1" y="345.1" class="st1" width="26" height="4.2"/>
<rect x="173.1" y="345.1" class="st1" width="26" height="4.2"/>
<rect x="209.1" y="345.1" class="st1" width="26" height="4.2"/>
<rect x="245.1" y="345.1" class="st1" width="26" height="4.2"/>
<rect x="280.1" y="345.1" class="st1" width="26" height="4.2"/>
<rect x="315.1" y="345.1" class="st1" width="26" height="4.2"/>
<rect x="349.1" y="345.1" class="st1" width="26" height="4.2"/>
<rect x="101.1" y="239.8" class="st4" width="26" height="27.7"/>
<rect x="101.1" y="345.1" class="st1" width="26" height="4.2"/>
<rect x="137.1" y="277.8" class="st4" width="26" height="27.7"/>
<rect x="137.1" y="345.1" class="st1" width="26" height="4.2"/>
<rect x="173.1" y="277.8" class="st4" width="26" height="27.7"/>
<rect x="173.1" y="345.1" class="st1" width="26" height="4.2"/>
<rect x="209.1" y="315.8" class="st4" width="26" height="27.7"/>
<rect x="209.1" y="345.1" class="st1" width="26" height="4.2"/>
<rect x="280.1" y="315.8" class="st4" width="26" height="27.7"/>
<rect x="280.1" y="345.1" class="st1" width="26" height="4.2"/>
<rect x="245.1" y="315.8" class="st4" width="26" height="27.7"/>
<rect x="245.1" y="345.1" class="st1" width="26" height="4.2"/>
<rect x="280.1" y="315.8" class="st4" width="26" height="27.7"/>
<rect x="280.1" y="345.1" class="st1" width="26" height="4.2"/>
<rect x="315.1" y="315.8" class="st4" width="26" height="27.7"/>
<rect x="315.1" y="345.1" class="st1" width="26" height="4.2"/>
<rect x="349.1" y="315.8" class="st4" width="26" height="27.7"/>
<rect x="349.1" y="345.1" class="st1" width="26" height="4.2"/>
<rect x="101.1" y="383.7" class="st1" width="26" height="4.2"/>
<rect x="137.1" y="383.7" class="st1" width="26" height="4.2"/>
<rect x="65.1" y="383.7" class="st1" width="26" height="4.2"/>
<rect x="173.1" y="383.7" class="st1" width="26" height="4.2"/>
<rect x="209.1" y="383.7" class="st1" width="26" height="4.2"/>
<rect x="245.1" y="383.7" class="st1" width="26" height="4.2"/>
<rect x="280.1" y="383.7" class="st1" width="26" height="4.2"/>
<rect x="315.1" y="383.7" class="st1" width="26" height="4.2"/>
<rect x="349.1" y="383.7" class="st1" width="26" height="4.2"/>
<rect x="101.1" y="278.3" class="st4" width="26" height="27.7"/>
<rect x="101.1" y="383.7" class="st1" width="26" height="4.2"/>
<rect x="137.1" y="315.3" class="st4" width="26" height="27.7"/>
<rect x="137.1" y="383.7" class="st1" width="26" height="4.2"/>
<rect x="173.1" y="315.3" class="st4" width="26" height="27.7"/>
<rect x="173.1" y="383.7" class="st1" width="26" height="4.2"/>
<rect x="209.1" y="354.3" class="st4" width="26" height="27.7"/>
<rect x="209.1" y="383.7" class="st1" width="26" height="4.2"/>
<rect x="280.1" y="354.3" class="st4" width="26" height="27.7"/>
<rect x="280.1" y="383.7" class="st1" width="26" height="4.2"/>
<rect x="245.1" y="354.3" class="st4" width="26" height="27.7"/>
<rect x="245.1" y="383.7" class="st1" width="26" height="4.2"/>
<rect x="280.1" y="354.3" class="st4" width="26" height="27.7"/>
<rect x="280.1" y="383.7" class="st1" width="26" height="4.2"/>
<rect x="315.1" y="354.3" class="st4" width="26" height="27.7"/>
<rect x="315.1" y="383.7" class="st1" width="26" height="4.2"/>
<rect x="349.1" y="354.3" class="st4" width="26" height="27.7"/>
<rect x="349.1" y="383.7" class="st1" width="26" height="4.2"/>
<rect x="101.1" y="421.4" class="st1" width="26" height="4.2"/>
<rect x="137.1" y="421.4" class="st1" width="26" height="4.2"/>
<rect x="65.1" y="421.4" class="st1" width="26" height="4.2"/>
<rect x="173.1" y="421.4" class="st1" width="26" height="4.2"/>
<rect x="209.1" y="421.4" class="st1" width="26" height="4.2"/>
<rect x="245.1" y="421.4" class="st1" width="26" height="4.2"/>
<rect x="280.1" y="421.4" class="st1" width="26" height="4.2"/>
<rect x="315.1" y="421.4" class="st1" width="26" height="4.2"/>
<rect x="349.1" y="421.4" class="st1" width="26" height="4.2"/>
<rect x="101.1" y="315.1" class="st4" width="26" height="27.7"/>
<rect x="101.1" y="421.4" class="st1" width="26" height="4.2"/>
<rect x="137.1" y="354.1" class="st4" width="26" height="27.7"/>
<rect x="137.1" y="421.4" class="st1" width="26" height="4.2"/>
<rect x="173.1" y="354.1" class="st4" width="26" height="27.7"/>
<rect x="173.1" y="421.4" class="st1" width="26" height="4.2"/>
<rect x="209.1" y="392.1" class="st4" width="26" height="27.7"/>
<rect x="209.1" y="421.4" class="st1" width="26" height="4.2"/>
<rect x="280.1" y="392.1" class="st4" width="26" height="27.7"/>
<rect x="280.1" y="421.4" class="st1" width="26" height="4.2"/>
<rect x="245.1" y="392.1" class="st4" width="26" height="27.7"/>
<rect x="245.1" y="421.4" class="st1" width="26" height="4.2"/>
<rect x="280.1" y="392.1" class="st4" width="26" height="27.7"/>
<rect x="280.1" y="421.4" class="st1" width="26" height="4.2"/>
<rect x="315.1" y="392.1" class="st4" width="26" height="27.7"/>
<rect x="315.1" y="421.4" class="st1" width="26" height="4.2"/>
<rect x="349.1" y="392.1" class="st4" width="26" height="27.7"/>
<rect x="349.1" y="421.4" class="st1" width="26" height="4.2"/>
<rect x="101.1" y="459.1" class="st1" width="26" height="4.2"/>
<rect x="137.1" y="459.1" class="st1" width="26" height="4.2"/>
<rect x="65.1" y="354.8" class="st4" width="26" height="27.7"/>
<rect x="65.1" y="459.1" class="st1" width="26" height="4.2"/>
<rect x="173.1" y="459.1" class="st1" width="26" height="4.2"/>
<rect x="209.1" y="459.1" class="st1" width="26" height="4.2"/>
<rect x="245.1" y="459.1" class="st1" width="26" height="4.2"/>
<rect x="280.1" y="459.1" class="st1" width="26" height="4.2"/>
<rect x="315.1" y="459.1" class="st1" width="26" height="4.2"/>
<rect x="349.1" y="459.1" class="st1" width="26" height="4.2"/>
<rect x="101.1" y="391.8" class="st4" width="26" height="27.7"/>
<rect x="101.1" y="459.1" class="st1" width="26" height="4.2"/>
<rect x="137.1" y="391.8" class="st4" width="26" height="27.7"/>
<rect x="137.1" y="459.1" class="st1" width="26" height="4.2"/>
<rect x="173.1" y="429.8" class="st4" width="26" height="27.7"/>
<rect x="173.1" y="459.1" class="st1" width="26" height="4.2"/>
<rect x="209.1" y="429.8" class="st4" width="26" height="27.7"/>
<rect x="209.1" y="459.1" class="st1" width="26" height="4.2"/>
<rect x="280.1" y="429.8" class="st4" width="26" height="27.7"/>
<rect x="280.1" y="459.1" class="st1" width="26" height="4.2"/>
<rect x="245.1" y="429.8" class="st4" width="26" height="27.7"/>
<rect x="245.1" y="459.1" class="st1" width="26" height="4.2"/>
<rect x="280.1" y="429.8" class="st4" width="26" height="27.7"/>
<rect x="280.1" y="459.1" class="st1" width="26" height="4.2"/>
<rect x="315.1" y="429.8" class="st4" width="26" height="27.7"/>
<rect x="315.1" y="459.1" class="st1" width="26" height="4.2"/>
<rect x="349.1" y="429.8" class="st4" width="26" height="27.7"/>
<rect x="349.1" y="459.1" class="st1" width="26" height="4.2"/>
<rect x="101.1" y="496.8" class="st1" width="26" height="4.2"/>
<rect x="137.1" y="496.8" class="st1" width="26" height="4.2"/>
<rect x="65.1" y="391.5" class="st4" width="26" height="27.7"/>
<rect x="65.1" y="496.8" class="st1" width="26" height="4.2"/>
<rect x="173.1" y="496.8" class="st1" width="26" height="4.2"/>
<rect x="209.1" y="496.8" class="st1" width="26" height="4.2"/>
<rect x="245.1" y="496.8" class="st1" width="26" height="4.2"/>
<rect x="280.1" y="496.8" class="st1" width="26" height="4.2"/>
<rect x="315.1" y="496.8" class="st1" width="26" height="4.2"/>
<rect x="349.1" y="496.8" class="st1" width="26" height="4.2"/>
<rect x="101.1" y="429.5" class="st4" width="26" height="27.7"/>
<rect x="101.1" y="496.8" class="st1" width="26" height="4.2"/>
<rect x="137.1" y="429.5" class="st4" width="26" height="27.7"/>
<rect x="137.1" y="496.8" class="st1" width="26" height="4.2"/>
<rect x="173.1" y="467.5" class="st4" width="26" height="27.7"/>
<rect x="173.1" y="496.8" class="st1" width="26" height="4.2"/>
<rect x="209.1" y="467.5" class="st4" width="26" height="27.7"/>
<rect x="209.1" y="496.8" class="st1" width="26" height="4.2"/>
<rect x="280.1" y="467.5" class="st4" width="26" height="27.7"/>
<rect x="280.1" y="496.8" class="st1" width="26" height="4.2"/>
<rect x="245.1" y="467.5" class="st4" width="26" height="27.7"/>
<rect x="245.1" y="496.8" class="st1" width="26" height="4.2"/>
<rect x="280.1" y="467.5" class="st4" width="26" height="27.7"/>
<rect x="280.1" y="496.8" class="st1" width="26" height="4.2"/>
<rect x="315.1" y="467.5" class="st4" width="26" height="27.7"/>
<rect x="315.1" y="496.8" class="st1" width="26" height="4.2"/>
<rect x="349.1" y="467.5" class="st4" width="26" height="27.7"/>
<rect x="349.1" y="496.8" class="st1" width="26" height="4.2"/>
<rect x="101.1" y="534.6" class="st1" width="26" height="4.2"/>
<rect x="137.1" y="534.6" class="st1" width="26" height="4.2"/>
<rect x="65.1" y="429.2" class="st4" width="26" height="27.7"/>
<rect x="65.1" y="534.6" class="st1" width="26" height="4.2"/>
<rect x="173.1" y="534.6" class="st1" width="26" height="4.2"/>
<rect x="209.1" y="534.6" class="st1" width="26" height="4.2"/>
<rect x="245.1" y="534.6" class="st1" width="26" height="4.2"/>
<rect x="280.1" y="534.6" class="st1" width="26" height="4.2"/>
<rect x="315.1" y="534.6" class="st1" width="26" height="4.2"/>
<rect x="349.1" y="534.6" class="st1" width="26" height="4.2"/>
<rect x="101.1" y="467.2" class="st4" width="26" height="27.7"/>
<rect x="101.1" y="534.6" class="st1" width="26" height="4.2"/>
<rect x="137.1" y="467.2" class="st4" width="26" height="27.7"/>
<rect x="137.1" y="534.6" class="st1" width="26" height="4.2"/>
<rect x="173.1" y="505.2" class="st4" width="26" height="27.7"/>
<rect x="173.1" y="534.6" class="st1" width="26" height="4.2"/>
<rect x="209.1" y="505.2" class="st4" width="26" height="27.7"/>
<rect x="209.1" y="534.6" class="st1" width="26" height="4.2"/>
<rect x="280.1" y="505.2" class="st4" width="26" height="27.7"/>
<rect x="280.1" y="534.6" class="st1" width="26" height="4.2"/>
<rect x="245.1" y="505.2" class="st4" width="26" height="27.7"/>
<rect x="245.1" y="534.6" class="st1" width="26" height="4.2"/>
<rect x="280.1" y="505.2" class="st4" width="26" height="27.7"/>
<rect x="280.1" y="534.6" class="st1" width="26" height="4.2"/>
<rect x="315.1" y="505.2" class="st4" width="26" height="27.7"/>
<rect x="315.1" y="534.6" class="st1" width="26" height="4.2"/>
<rect x="349.1" y="505.2" class="st4" width="26" height="27.7"/>
<rect x="349.1" y="534.6" class="st1" width="26" height="4.2"/>
<rect x="101.1" y="572.3" class="st1" width="26" height="4.2"/>
<rect x="137.1" y="572.3" class="st1" width="26" height="4.2"/>
<rect x="65.1" y="467" class="st4" width="26" height="27.7"/>
<rect x="65.1" y="572.3" class="st1" width="26" height="4.2"/>
<rect x="173.1" y="572.3" class="st1" width="26" height="4.2"/>
<rect x="209.1" y="572.3" class="st1" width="26" height="4.2"/>
<rect x="245.1" y="572.3" class="st1" width="26" height="4.2"/>
<rect x="280.1" y="572.3" class="st1" width="26" height="4.2"/>
<rect x="315.1" y="572.3" class="st1" width="26" height="4.2"/>
<rect x="349.1" y="572.3" class="st1" width="26" height="4.2"/>
<rect x="101.1" y="505" class="st4" width="26" height="27.7"/>
<rect x="101.1" y="572.3" class="st1" width="26" height="4.2"/>
<rect x="137.1" y="505" class="st4" width="26" height="27.7"/>
<rect x="137.1" y="572.3" class="st1" width="26" height="4.2"/>
<rect x="173.1" y="543" class="st4" width="26" height="27.7"/>
<rect x="173.1" y="572.3" class="st1" width="26" height="4.2"/>
<rect x="209.1" y="543" class="st4" width="26" height="27.7"/>
<rect x="209.1" y="572.3" class="st1" width="26" height="4.2"/>
<rect x="280.1" y="543" class="st4" width="26" height="27.7"/>
<rect x="280.1" y="572.3" class="st1" width="26" height="4.2"/>
<rect x="245.1" y="543" class="st4" width="26" height="27.7"/>
<rect x="245.1" y="572.3" class="st1" width="26" height="4.2"/>
<rect x="280.1" y="543" class="st4" width="26" height="27.7"/>
<rect x="280.1" y="572.3" class="st1" width="26" height="4.2"/>
<rect x="315.1" y="543" class="st4" width="26" height="27.7"/>
<rect x="315.1" y="572.3" class="st1" width="26" height="4.2"/>
<rect x="349.1" y="543" class="st4" width="26" height="27.7"/>
<rect x="349.1" y="572.3" class="st1" width="26" height="4.2"/>
<rect x="101.1" y="610.9" class="st1" width="26" height="4.2"/>
<rect x="137.1" y="610.9" class="st1" width="26" height="4.2"/>
<rect x="65.1" y="505.5" class="st4" width="26" height="27.7"/>
<rect x="65.1" y="610.9" class="st1" width="26" height="4.2"/>
<rect x="173.1" y="610.9" class="st1" width="26" height="4.2"/>
<rect x="209.1" y="610.9" class="st1" width="26" height="4.2"/>
<rect x="245.1" y="610.9" class="st1" width="26" height="4.2"/>
<rect x="280.1" y="610.9" class="st1" width="26" height="4.2"/>
<rect x="315.1" y="610.9" class="st1" width="26" height="4.2"/>
<rect x="349.1" y="610.9" class="st1" width="26" height="4.2"/>
<rect x="101.1" y="542.5" class="st4" width="26" height="27.7"/>
<rect x="101.1" y="610.9" class="st1" width="26" height="4.2"/>
<rect x="137.1" y="542.5" class="st4" width="26" height="27.7"/>
<rect x="137.1" y="610.9" class="st1" width="26" height="4.2"/>
<rect x="173.1" y="581.5" class="st4" width="26" height="27.7"/>
<rect x="173.1" y="610.9" class="st1" width="26" height="4.2"/>
<rect x="209.1" y="581.5" class="st5" width="26" height="27.7"/>
<rect x="209.1" y="610.9" class="st1" width="26" height="4.2"/>
<rect x="280.1" y="581.5" class="st4" width="26" height="27.7"/>
<rect x="280.1" y="610.9" class="st1" width="26" height="4.2"/>
<rect x="245.1" y="581.5" class="st4" width="26" height="27.7"/>
<rect x="245.1" y="610.9" class="st1" width="26" height="4.2"/>
<rect x="280.1" y="581.5" class="st4" width="26" height="27.7"/>
<rect x="280.1" y="610.9" class="st1" width="26" height="4.2"/>
<rect x="315.1" y="581.5" class="st4" width="26" height="27.7"/>
<rect x="315.1" y="610.9" class="st1" width="26" height="4.2"/>
<rect x="349.1" y="581.5" class="st4" width="26" height="27.7"/>
<rect x="349.1" y="610.9" class="st1" width="26" height="4.2"/>
<rect x="101.1" y="649.8" class="st1" width="26" height="4.2"/>
<rect x="137.1" y="649.8" class="st1" width="26" height="4.2"/>
<rect x="65.1" y="542.4" class="st4" width="26" height="27.7"/>
<rect x="65.1" y="649.8" class="st1" width="26" height="4.2"/>
<rect x="173.1" y="649.8" class="st1" width="26" height="4.2"/>
<rect x="209.1" y="649.8" class="st1" width="26" height="4.2"/>
<rect x="245.1" y="649.8" class="st1" width="26" height="4.2"/>
<rect x="280.1" y="649.8" class="st1" width="26" height="4.2"/>
<rect x="315.1" y="649.8" class="st1" width="26" height="4.2"/>
<rect x="349.1" y="649.8" class="st1" width="26" height="4.2"/>
<rect x="101.1" y="581.4" class="st4" width="26" height="27.7"/>
<rect x="101.1" y="649.8" class="st1" width="26" height="4.2"/>
<rect x="137.1" y="581.4" class="st6" width="26" height="27.7"/>
<rect x="137.1" y="649.8" class="st1" width="26" height="4.2"/>
<rect x="173.1" y="620.4" class="st7" width="26" height="27.7"/>
<rect x="173.1" y="649.8" class="st1" width="26" height="4.2"/>
<rect x="209.1" y="620.4" class="st5" width="26" height="27.7"/>
<rect x="209.1" y="649.8" class="st1" width="26" height="4.2"/>
<rect x="280.1" y="620.4" class="st4" width="26" height="27.7"/>
<rect x="280.1" y="649.8" class="st1" width="26" height="4.2"/>
<rect x="245.1" y="620.4" class="st4" width="26" height="27.7"/>
<rect x="245.1" y="649.8" class="st1" width="26" height="4.2"/>
<rect x="280.1" y="620.4" class="st4" width="26" height="27.7"/>
<rect x="280.1" y="649.8" class="st1" width="26" height="4.2"/>
<rect x="315.1" y="620.4" class="st4" width="26" height="27.7"/>
<rect x="315.1" y="649.8" class="st1" width="26" height="4.2"/>
<rect x="349.1" y="620.4" class="st4" width="26" height="27.7"/>
<rect x="349.1" y="649.8" class="st1" width="26" height="4.2"/>
<rect x="101.1" y="687.5" class="st1" width="26" height="4.2"/>
<rect x="137.1" y="687.5" class="st1" width="26" height="4.2"/>
<rect x="65.1" y="687.5" class="st1" width="26" height="4.2"/>
<rect x="173.1" y="687.5" class="st1" width="26" height="4.2"/>
<rect x="209.1" y="687.5" class="st1" width="26" height="4.2"/>
<rect x="245.1" y="687.5" class="st1" width="26" height="4.2"/>
<rect x="280.1" y="687.5" class="st1" width="26" height="4.2"/>
<rect x="315.1" y="687.5" class="st1" width="26" height="4.2"/>
<rect x="349.1" y="687.5" class="st1" width="26" height="4.2"/>
<rect x="101.1" y="687.5" class="st1" width="26" height="4.2"/>
<rect x="137.1" y="687.5" class="st1" width="26" height="4.2"/>
<rect x="173.1" y="658.1" class="st7" width="26" height="27.7"/>
<rect x="173.1" y="687.5" class="st1" width="26" height="4.2"/>
<rect x="209.1" y="658.1" class="st5" width="26" height="27.7"/>
<rect x="209.1" y="687.5" class="st1" width="26" height="4.2"/>
<rect x="280.1" y="658.1" class="st4" width="26" height="27.7"/>
<rect x="280.1" y="687.5" class="st1" width="26" height="4.2"/>
<rect x="245.1" y="658.1" class="st8" width="26" height="27.7"/>
<rect x="245.1" y="687.5" class="st1" width="26" height="4.2"/>
<rect x="280.1" y="658.1" class="st8" width="26" height="27.7"/>
<rect x="280.1" y="687.5" class="st1" width="26" height="4.2"/>
<rect x="315.1" y="658.1" class="st4" width="26" height="27.7"/>
<rect x="315.1" y="687.5" class="st1" width="26" height="4.2"/>
<rect x="349.1" y="658.1" class="st4" width="26" height="27.7"/>
<rect x="349.1" y="687.5" class="st1" width="26" height="4.2"/>
<rect x="101.1" y="724.4" class="st1" width="26" height="4.2"/>
<rect x="137.1" y="724.4" class="st1" width="26" height="4.2"/>
<rect x="65.1" y="620" class="st4" width="26" height="27.7"/>
<rect x="65.1" y="724.4" class="st1" width="26" height="4.2"/>
<rect x="173.1" y="724.4" class="st1" width="26" height="4.2"/>
<rect x="209.1" y="724.4" class="st1" width="26" height="4.2"/>
<rect x="245.1" y="724.4" class="st1" width="26" height="4.2"/>
<rect x="280.1" y="724.4" class="st1" width="26" height="4.2"/>
<rect x="315.1" y="724.4" class="st1" width="26" height="4.2"/>
<rect x="349.1" y="724.4" class="st1" width="26" height="4.2"/>
<rect x="101.1" y="658" class="st6" width="26" height="27.7"/>
<rect x="101.1" y="724.4" class="st1" width="26" height="4.2"/>
<rect x="137.1" y="658" class="st7" width="26" height="27.7"/>
<rect x="137.1" y="724.4" class="st1" width="26" height="4.2"/>
<rect x="173.1" y="695" class="st7" width="26" height="27.7"/>
<rect x="173.1" y="724.4" class="st1" width="26" height="4.2"/>
<rect x="209.1" y="695" class="st5" width="26" height="27.7"/>
<rect x="209.1" y="724.4" class="st1" width="26" height="4.2"/>
<rect x="280.1" y="695" class="st4" width="26" height="27.7"/>
<rect x="280.1" y="724.4" class="st1" width="26" height="4.2"/>
<rect x="245.1" y="695" class="st8" width="26" height="27.7"/>
<rect x="245.1" y="724.4" class="st1" width="26" height="4.2"/>
<rect x="280.1" y="695" class="st8" width="26" height="27.7"/>
<rect x="280.1" y="724.4" class="st1" width="26" height="4.2"/>
<rect x="315.1" y="695" class="st4" width="26" height="27.7"/>
<rect x="315.1" y="724.4" class="st1" width="26" height="4.2"/>
<rect x="349.1" y="695" class="st4" width="26" height="27.7"/>
<rect x="349.1" y="724.4" class="st1" width="26" height="4.2"/>
<rect x="101.1" y="767.9" class="st1" width="26" height="5"/>
<rect x="137.1" y="767.9" class="st1" width="26" height="5"/>
<rect x="65.1" y="733.4" class="st4" width="26" height="40.9"/>
<rect x="65.1" y="776.3" class="st1" width="26" height="5"/>
<rect x="173.1" y="767.9" class="st1" width="26" height="5"/>
<rect x="209.1" y="767.9" class="st1" width="26" height="5"/>
<rect x="245.1" y="767.9" class="st1" width="26" height="5"/>
<rect x="280.1" y="767.9" class="st1" width="26" height="5"/>
<rect x="315.1" y="767.9" class="st1" width="26" height="5"/>
<rect x="349.1" y="767.9" class="st1" width="26" height="5"/>
<rect x="101.1" y="733.4" class="st4" width="26" height="40.9"/>
<rect x="101.1" y="776.3" class="st1" width="26" height="5"/>
<rect x="137.1" y="733.4" class="st4" width="26" height="40.9"/>
<rect x="137.1" y="776.3" class="st1" width="26" height="5"/>
<rect x="173.1" y="733.4" class="st4" width="26" height="40.9"/>
<rect x="173.1" y="776.3" class="st1" width="26" height="5"/>
<rect x="209.1" y="733.4" class="st4" width="26" height="40.9"/>
<rect x="209.1" y="776.3" class="st1" width="26" height="5"/>
<rect x="280.1" y="732.7" class="st4" width="26" height="33.1"/>
<rect x="280.1" y="767.9" class="st1" width="26" height="5"/>
<rect x="245.1" y="733.4" class="st4" width="26" height="40.9"/>
<rect x="245.1" y="776.3" class="st1" width="26" height="5"/>
<rect x="280.1" y="733.4" class="st4" width="26" height="40.9"/>
<rect x="280.1" y="776.3" class="st1" width="26" height="5"/>
<rect x="315.1" y="733.4" class="st4" width="26" height="40.9"/>
<rect x="315.1" y="776.3" class="st1" width="26" height="5"/>
<rect x="349.1" y="733.4" class="st4" width="26" height="40.9"/>
<rect x="349.1" y="776.3" class="st1" width="26" height="5"/>
<rect x="153.1" y="844.3" class="st9" width="138" height="42"/>
<path class="st9" d="M276.6,824.3H167.7c-8,0-14.5,6.5-14.5,14.5v32.9c0,8,6.5,14.5,14.5,14.5h108.9c8,0,14.5-6.5,14.5-14.5v-32.9
	C291.1,830.8,284.6,824.3,276.6,824.3z"/>
<g>
	<rect x="101.1" y="844.3" class="st9" width="36" height="42"/>
	<path class="st9" d="M127.9,824.3h-17.7c-5.1,0-9.2,4.1-9.2,9.2v43.7c0,5.1,4.1,9.2,9.2,9.2h17.7c5.1,0,9.2-4.1,9.2-9.2v-43.7
		C137.1,828.4,133,824.3,127.9,824.3z"/>
</g>
<g>
	<rect x="306.1" y="844.3" class="st9" width="36" height="42"/>
	<path class="st9" d="M332.9,824.3h-17.7c-5.1,0-9.2,4.1-9.2,9.2v43.7c0,5.1,4.1,9.2,9.2,9.2h17.7c5.1,0,9.2-4.1,9.2-9.2v-43.7
		C342.1,828.4,338,824.3,332.9,824.3z"/>
</g>
<path class="st10" d="M302.2,84.3H284c-2.2,0-3.9-1.8-3.9-3.9V30.2c0-2.2,1.8-3.9,3.9-3.9h18.1c2.2,0,3.9,1.8,3.9,3.9v50.1
	C306.1,82.5,304.4,84.3,302.2,84.3z"/>
<path class="st10" d="M337.2,85.3H319c-2.2,0-3.9-1.8-3.9-3.9V31.2c0-2.2,1.8-3.9,3.9-3.9h18.1c2.2,0,3.9,1.8,3.9,3.9v50.1
	C341.1,83.5,339.4,85.3,337.2,85.3z"/>
<path class="st10" d="M371.2,85.3H353c-2.2,0-3.9-1.8-3.9-3.9V31.2c0-2.2,1.8-3.9,3.9-3.9h18.1c2.2,0,3.9,1.8,3.9,3.9v50.1
	C375.1,83.5,373.4,85.3,371.2,85.3z"/>
<path class="st10" d="M267.2,84.3H249c-2.2,0-3.9-1.8-3.9-3.9V30.2c0-2.2,1.8-3.9,3.9-3.9h18.1c2.2,0,3.9,1.8,3.9,3.9v50.1
	C271.1,82.5,269.4,84.3,267.2,84.3z"/>
<path class="st10" d="M231.2,85.3H213c-2.2,0-3.9-1.8-3.9-3.9V31.2c0-2.2,1.8-3.9,3.9-3.9h18.1c2.2,0,3.9,1.8,3.9,3.9v50.1
	C235.1,83.5,233.4,85.3,231.2,85.3z"/>
<path class="st10" d="M195.2,85.3H177c-2.2,0-3.9-1.8-3.9-3.9V31.2c0-2.2,1.8-3.9,3.9-3.9h18.1c2.2,0,3.9,1.8,3.9,3.9v50.1
	C199.1,83.5,197.4,85.3,195.2,85.3z"/>
<path class="st10" d="M159.2,85.3H141c-2.2,0-3.9-1.8-3.9-3.9V31.2c0-2.2,1.8-3.9,3.9-3.9h18.1c2.2,0,3.9,1.8,3.9,3.9v50.1
	C163.1,83.5,161.4,85.3,159.2,85.3z"/>
<path class="st10" d="M123.2,85.3H105c-2.2,0-3.9-1.8-3.9-3.9V31.2c0-2.2,1.8-3.9,3.9-3.9h18.1c2.2,0,3.9,1.8,3.9,3.9v50.1
	C127.1,83.5,125.4,85.3,123.2,85.3z"/>
<path class="st10" d="M87.2,85.3H69c-2.2,0-3.9-1.8-3.9-3.9V31.2c0-2.2,1.8-3.9,3.9-3.9h18.1c2.2,0,3.9,1.8,3.9,3.9v50.1
	C91.1,83.5,89.4,85.3,87.2,85.3z"/>
<rect x="101.1" y="354.3" class="st4" width="26" height="27.7"/>
<rect x="173.1" y="392.1" class="st4" width="26" height="27.7"/>
<rect x="65.1" y="581.1" class="st4" width="26" height="27.7"/>
<rect x="101.1" y="620.1" class="st6" width="26" height="27.7"/>
<rect x="137.1" y="620.1" class="st6" width="26" height="27.7"/>
<rect x="65.1" y="695.3" class="st11" width="26" height="27.7"/>
<rect x="101.1" y="695.3" class="st11" width="26" height="27.7"/>
<rect x="137.1" y="695.3" class="st11" width="26" height="27.7"/>
<rect x="65.1" y="658.3" class="st11" width="26" height="27.7"/>
</svg>
