<svg id="Layer_1" data-name="Layer 1" xmlns="http://www.w3.org/2000/svg" viewBox="0 0 1215.22 563.54"><defs><style>.cls-1{fill:#ccbdae;}.cls-12,.cls-13,.cls-15,.cls-2,.cls-6{fill:none;}.cls-2{stroke:#ccbdae;stroke-width:4px;}.cls-10,.cls-11,.cls-12,.cls-13,.cls-15,.cls-2{stroke-miterlimit:10;}.cls-3{opacity:0.66;}.cls-4{fill:#646464;}.cls-5{fill:#787878;}.cls-7{fill:#58585a;}.cls-8{fill:#707173;}.cls-9{fill:#b1b3b4;}.cls-10,.cls-14{fill:#009ee0;}.cls-10,.cls-11{stroke:#000;}.cls-11{fill:#3e3d40;}.cls-12,.cls-15{stroke:#87888a;}.cls-12{stroke-width:1.42px;}.cls-13{stroke:#58585a;stroke-width:11.34px;}.cls-15{stroke-width:1.12px;}</style></defs><title>mccormick</title><rect class="cls-1" x="35.6" y="55" width="382" height="503"/><rect class="cls-1" x="711.6" y="55" width="382" height="503"/><rect class="cls-1" x="382.6" y="447" width="382" height="111"/><rect class="cls-1" x="107.6" width="236" height="17"/><line class="cls-2" x1="81.6" y1="17" x2="369.6" y2="17"/><line class="cls-2" x1="460.6" y1="26" x2="461.6" y2="26"/><rect class="cls-1" x="784.6" width="236" height="17"/><line class="cls-2" x1="758.6" y1="17" x2="1046.6" y2="17"/><g class="cls-3"><rect class="cls-4" x="776.6" y="19" width="252" height="36"/></g><path class="cls-5" d="M52,132.6H49.1a9.39,9.39,0,0,1-9.4-9.4V103a9.39,9.39,0,0,1,9.4-9.4H52a9.39,9.39,0,0,1,9.4,9.4v20.3A9.5,9.5,0,0,1,52,132.6Z" transform="translate(0.9 -20.6)"/><rect class="cls-5" x="40.6" y="88" width="21.6" height="24"/><path class="cls-5" d="M76.9,132.6H74a9.39,9.39,0,0,1-9.4-9.4V103A9.39,9.39,0,0,1,74,93.6h2.9a9.39,9.39,0,0,1,9.4,9.4v20.3A9.5,9.5,0,0,1,76.9,132.6Z" transform="translate(0.9 -20.6)"/><rect class="cls-5" x="65.5" y="88" width="21.6" height="24"/><path class="cls-5" d="M117.6,132.6h-2.9a9.39,9.39,0,0,1-9.4-9.4V103a9.39,9.39,0,0,1,9.4-9.4h2.9A9.39,9.39,0,0,1,127,103v20.3A9.5,9.5,0,0,1,117.6,132.6Z" transform="translate(0.9 -20.6)"/><rect class="cls-5" x="106.2" y="88" width="21.6" height="24"/><path class="cls-5" d="M142.5,132.6h-2.9a9.39,9.39,0,0,1-9.4-9.4V103a9.39,9.39,0,0,1,9.4-9.4h2.9a9.39,9.39,0,0,1,9.4,9.4v20.3A9.43,9.43,0,0,1,142.5,132.6Z" transform="translate(0.9 -20.6)"/><rect class="cls-5" x="131.2" y="88" width="21.6" height="24"/><path class="cls-5" d="M167.4,132.6h-2.9a9.39,9.39,0,0,1-9.4-9.4V103a9.39,9.39,0,0,1,9.4-9.4h2.9a9.39,9.39,0,0,1,9.4,9.4v20.3A9.37,9.37,0,0,1,167.4,132.6Z" transform="translate(0.9 -20.6)"/><rect class="cls-5" x="156.1" y="88" width="21.6" height="24"/><path class="cls-5" d="M205.6,132.6h-2.9a9.39,9.39,0,0,1-9.4-9.4V103a9.39,9.39,0,0,1,9.4-9.4h2.9A9.39,9.39,0,0,1,215,103v20.3A9.37,9.37,0,0,1,205.6,132.6Z" transform="translate(0.9 -20.6)"/><rect class="cls-5" x="194.3" y="88" width="21.6" height="24"/><path class="cls-5" d="M230.5,132.6h-2.9a9.39,9.39,0,0,1-9.4-9.4V103a9.39,9.39,0,0,1,9.4-9.4h2.9a9.39,9.39,0,0,1,9.4,9.4v20.3A9.37,9.37,0,0,1,230.5,132.6Z" transform="translate(0.9 -20.6)"/><rect class="cls-5" x="219.2" y="88" width="21.6" height="24"/><path class="cls-5" d="M255.5,132.6h-2.9a9.39,9.39,0,0,1-9.4-9.4V103a9.39,9.39,0,0,1,9.4-9.4h2.9a9.39,9.39,0,0,1,9.4,9.4v20.3A9.5,9.5,0,0,1,255.5,132.6Z" transform="translate(0.9 -20.6)"/><rect class="cls-5" x="244.1" y="88" width="21.6" height="24"/><path class="cls-5" d="M289.5,132.6h-2.9a9.39,9.39,0,0,1-9.4-9.4V103a9.39,9.39,0,0,1,9.4-9.4h2.9a9.39,9.39,0,0,1,9.4,9.4v20.3A9.37,9.37,0,0,1,289.5,132.6Z" transform="translate(0.9 -20.6)"/><rect class="cls-5" x="278.2" y="88" width="21.6" height="24"/><path class="cls-5" d="M314.4,132.6h-2.9a9.39,9.39,0,0,1-9.4-9.4V103a9.39,9.39,0,0,1,9.4-9.4h2.9a9.39,9.39,0,0,1,9.4,9.4v20.3A9.37,9.37,0,0,1,314.4,132.6Z" transform="translate(0.9 -20.6)"/><rect class="cls-5" x="303.1" y="88" width="21.6" height="24"/><path class="cls-5" d="M339.4,132.6h-2.9a9.39,9.39,0,0,1-9.4-9.4V103a9.39,9.39,0,0,1,9.4-9.4h2.9a9.39,9.39,0,0,1,9.4,9.4v20.3A9.5,9.5,0,0,1,339.4,132.6Z" transform="translate(0.9 -20.6)"/><rect class="cls-5" x="328" y="88" width="21.6" height="24"/><path class="cls-5" d="M377,132.6h-2.9a9.39,9.39,0,0,1-9.4-9.4V103a9.39,9.39,0,0,1,9.4-9.4H377a9.39,9.39,0,0,1,9.4,9.4v20.3A9.5,9.5,0,0,1,377,132.6Z" transform="translate(0.9 -20.6)"/><rect class="cls-5" x="365.6" y="88" width="21.6" height="24"/><path class="cls-5" d="M401.9,132.6H399a9.39,9.39,0,0,1-9.4-9.4V103a9.39,9.39,0,0,1,9.4-9.4h2.9a9.39,9.39,0,0,1,9.4,9.4v20.3A9.5,9.5,0,0,1,401.9,132.6Z" transform="translate(0.9 -20.6)"/><rect class="cls-5" x="390.5" y="88" width="21.6" height="24"/><path class="cls-5" d="M52,265.6H49.1a9.39,9.39,0,0,1-9.4-9.4V236a9.39,9.39,0,0,1,9.4-9.4H52a9.39,9.39,0,0,1,9.4,9.4v20.3A9.5,9.5,0,0,1,52,265.6Z" transform="translate(0.9 -20.6)"/><rect class="cls-5" x="40.6" y="221" width="21.6" height="24"/><path class="cls-5" d="M76.9,265.6H74a9.39,9.39,0,0,1-9.4-9.4V236a9.39,9.39,0,0,1,9.4-9.4h2.9a9.39,9.39,0,0,1,9.4,9.4v20.3A9.5,9.5,0,0,1,76.9,265.6Z" transform="translate(0.9 -20.6)"/><rect class="cls-5" x="65.5" y="221" width="21.6" height="24"/><path class="cls-5" d="M117.6,265.6h-2.9a9.39,9.39,0,0,1-9.4-9.4V236a9.39,9.39,0,0,1,9.4-9.4h2.9A9.39,9.39,0,0,1,127,236v20.3A9.5,9.5,0,0,1,117.6,265.6Z" transform="translate(0.9 -20.6)"/><rect class="cls-5" x="106.2" y="221" width="21.6" height="24"/><path class="cls-5" d="M142.5,265.6h-2.9a9.39,9.39,0,0,1-9.4-9.4V236a9.39,9.39,0,0,1,9.4-9.4h2.9a9.39,9.39,0,0,1,9.4,9.4v20.3A9.43,9.43,0,0,1,142.5,265.6Z" transform="translate(0.9 -20.6)"/><rect class="cls-5" x="131.2" y="221" width="21.6" height="24"/><path class="cls-5" d="M167.4,265.6h-2.9a9.39,9.39,0,0,1-9.4-9.4V236a9.39,9.39,0,0,1,9.4-9.4h2.9a9.39,9.39,0,0,1,9.4,9.4v20.3A9.37,9.37,0,0,1,167.4,265.6Z" transform="translate(0.9 -20.6)"/><rect class="cls-5" x="156.1" y="221" width="21.6" height="24"/><path class="cls-5" d="M205.6,265.6h-2.9a9.39,9.39,0,0,1-9.4-9.4V236a9.39,9.39,0,0,1,9.4-9.4h2.9A9.39,9.39,0,0,1,215,236v20.3A9.37,9.37,0,0,1,205.6,265.6Z" transform="translate(0.9 -20.6)"/><rect class="cls-5" x="194.3" y="221" width="21.6" height="24"/><path class="cls-5" d="M230.5,265.6h-2.9a9.39,9.39,0,0,1-9.4-9.4V236a9.39,9.39,0,0,1,9.4-9.4h2.9a9.39,9.39,0,0,1,9.4,9.4v20.3A9.37,9.37,0,0,1,230.5,265.6Z" transform="translate(0.9 -20.6)"/><rect class="cls-5" x="219.2" y="221" width="21.6" height="24"/><path class="cls-5" d="M255.5,265.6h-2.9a9.39,9.39,0,0,1-9.4-9.4V236a9.39,9.39,0,0,1,9.4-9.4h2.9a9.39,9.39,0,0,1,9.4,9.4v20.3A9.5,9.5,0,0,1,255.5,265.6Z" transform="translate(0.9 -20.6)"/><rect class="cls-5" x="244.1" y="221" width="21.6" height="24"/><path class="cls-5" d="M289.5,265.6h-2.9a9.39,9.39,0,0,1-9.4-9.4V236a9.39,9.39,0,0,1,9.4-9.4h2.9a9.39,9.39,0,0,1,9.4,9.4v20.3A9.37,9.37,0,0,1,289.5,265.6Z" transform="translate(0.9 -20.6)"/><rect class="cls-5" x="278.2" y="221" width="21.6" height="24"/><path class="cls-5" d="M314.4,265.6h-2.9a9.39,9.39,0,0,1-9.4-9.4V236a9.39,9.39,0,0,1,9.4-9.4h2.9a9.39,9.39,0,0,1,9.4,9.4v20.3A9.37,9.37,0,0,1,314.4,265.6Z" transform="translate(0.9 -20.6)"/><rect class="cls-5" x="303.1" y="221" width="21.6" height="24"/><path class="cls-5" d="M339.4,265.6h-2.9a9.39,9.39,0,0,1-9.4-9.4V236a9.39,9.39,0,0,1,9.4-9.4h2.9a9.39,9.39,0,0,1,9.4,9.4v20.3A9.5,9.5,0,0,1,339.4,265.6Z" transform="translate(0.9 -20.6)"/><rect class="cls-5" x="328" y="221" width="21.6" height="24"/><path class="cls-5" d="M377,265.6h-2.9a9.39,9.39,0,0,1-9.4-9.4V236a9.39,9.39,0,0,1,9.4-9.4H377a9.39,9.39,0,0,1,9.4,9.4v20.3A9.5,9.5,0,0,1,377,265.6Z" transform="translate(0.9 -20.6)"/><rect class="cls-5" x="365.6" y="221" width="21.6" height="24"/><path class="cls-5" d="M401.9,265.6H399a9.39,9.39,0,0,1-9.4-9.4V236a9.39,9.39,0,0,1,9.4-9.4h2.9a9.39,9.39,0,0,1,9.4,9.4v20.3A9.5,9.5,0,0,1,401.9,265.6Z" transform="translate(0.9 -20.6)"/><rect class="cls-5" x="390.5" y="221" width="21.6" height="24"/><path class="cls-5" d="M71.6,198.6H68.7a9.39,9.39,0,0,1-9.4-9.4V169a9.39,9.39,0,0,1,9.4-9.4h2.9A9.39,9.39,0,0,1,81,169v20.3A9.5,9.5,0,0,1,71.6,198.6Z" transform="translate(0.9 -20.6)"/><rect class="cls-5" x="60.2" y="154" width="21.6" height="24"/><path class="cls-5" d="M96.5,198.6H93.6a9.39,9.39,0,0,1-9.4-9.4V169a9.39,9.39,0,0,1,9.4-9.4h2.9a9.39,9.39,0,0,1,9.4,9.4v20.3A9.43,9.43,0,0,1,96.5,198.6Z" transform="translate(0.9 -20.6)"/><rect class="cls-5" x="85.2" y="154" width="21.6" height="24"/><path class="cls-5" d="M121.4,198.6h-2.9a9.39,9.39,0,0,1-9.4-9.4V169a9.39,9.39,0,0,1,9.4-9.4h2.9a9.39,9.39,0,0,1,9.4,9.4v20.3A9.37,9.37,0,0,1,121.4,198.6Z" transform="translate(0.9 -20.6)"/><rect class="cls-5" x="110.1" y="154" width="21.6" height="24"/><path class="cls-5" d="M159.6,198.6h-2.9a9.39,9.39,0,0,1-9.4-9.4V169a9.39,9.39,0,0,1,9.4-9.4h2.9A9.39,9.39,0,0,1,169,169v20.3A9.37,9.37,0,0,1,159.6,198.6Z" transform="translate(0.9 -20.6)"/><rect class="cls-5" x="148.3" y="154" width="21.6" height="24"/><path class="cls-5" d="M184.5,198.6h-2.9a9.39,9.39,0,0,1-9.4-9.4V169a9.39,9.39,0,0,1,9.4-9.4h2.9a9.39,9.39,0,0,1,9.4,9.4v20.3A9.37,9.37,0,0,1,184.5,198.6Z" transform="translate(0.9 -20.6)"/><rect class="cls-5" x="173.2" y="154" width="21.6" height="24"/><path class="cls-5" d="M209.5,198.6h-2.9a9.39,9.39,0,0,1-9.4-9.4V169a9.39,9.39,0,0,1,9.4-9.4h2.9a9.39,9.39,0,0,1,9.4,9.4v20.3A9.5,9.5,0,0,1,209.5,198.6Z" transform="translate(0.9 -20.6)"/><rect class="cls-5" x="198.1" y="154" width="21.6" height="24"/><path class="cls-5" d="M246.5,198.6h-2.9a9.39,9.39,0,0,1-9.4-9.4V169a9.39,9.39,0,0,1,9.4-9.4h2.9a9.39,9.39,0,0,1,9.4,9.4v20.3A9.37,9.37,0,0,1,246.5,198.6Z" transform="translate(0.9 -20.6)"/><rect class="cls-5" x="235.2" y="154" width="21.6" height="24"/><path class="cls-5" d="M271.4,198.6h-2.9a9.39,9.39,0,0,1-9.4-9.4V169a9.39,9.39,0,0,1,9.4-9.4h2.9a9.39,9.39,0,0,1,9.4,9.4v20.3A9.37,9.37,0,0,1,271.4,198.6Z" transform="translate(0.9 -20.6)"/><rect class="cls-5" x="260.1" y="154" width="21.6" height="24"/><path class="cls-5" d="M296.4,198.6h-2.9a9.39,9.39,0,0,1-9.4-9.4V169a9.39,9.39,0,0,1,9.4-9.4h2.9a9.39,9.39,0,0,1,9.4,9.4v20.3A9.5,9.5,0,0,1,296.4,198.6Z" transform="translate(0.9 -20.6)"/><rect class="cls-5" x="285" y="154" width="21.6" height="24"/><path class="cls-5" d="M332.5,198.6h-2.9a9.39,9.39,0,0,1-9.4-9.4V169a9.39,9.39,0,0,1,9.4-9.4h2.9a9.39,9.39,0,0,1,9.4,9.4v20.3A9.37,9.37,0,0,1,332.5,198.6Z" transform="translate(0.9 -20.6)"/><rect class="cls-5" x="321.2" y="154" width="21.6" height="24"/><path class="cls-5" d="M357.4,198.6h-2.9a9.39,9.39,0,0,1-9.4-9.4V169a9.39,9.39,0,0,1,9.4-9.4h2.9a9.39,9.39,0,0,1,9.4,9.4v20.3A9.37,9.37,0,0,1,357.4,198.6Z" transform="translate(0.9 -20.6)"/><rect class="cls-5" x="346.1" y="154" width="21.6" height="24"/><path class="cls-5" d="M382.4,198.6h-2.9a9.39,9.39,0,0,1-9.4-9.4V169a9.39,9.39,0,0,1,9.4-9.4h2.9a9.39,9.39,0,0,1,9.4,9.4v20.3A9.5,9.5,0,0,1,382.4,198.6Z" transform="translate(0.9 -20.6)"/><rect class="cls-5" x="371" y="154" width="21.6" height="24"/><path class="cls-5" d="M75.6,332.6H72.7a9.39,9.39,0,0,1-9.4-9.4V303a9.39,9.39,0,0,1,9.4-9.4h2.9A9.39,9.39,0,0,1,85,303v20.3A9.5,9.5,0,0,1,75.6,332.6Z" transform="translate(0.9 -20.6)"/><rect class="cls-5" x="64.2" y="288" width="21.6" height="24"/><path class="cls-5" d="M100.5,332.6H97.6a9.39,9.39,0,0,1-9.4-9.4V303a9.39,9.39,0,0,1,9.4-9.4h2.9a9.39,9.39,0,0,1,9.4,9.4v20.3A9.43,9.43,0,0,1,100.5,332.6Z" transform="translate(0.9 -20.6)"/><rect class="cls-5" x="89.2" y="288" width="21.6" height="24"/><path class="cls-5" d="M125.4,332.6h-2.9a9.39,9.39,0,0,1-9.4-9.4V303a9.39,9.39,0,0,1,9.4-9.4h2.9a9.39,9.39,0,0,1,9.4,9.4v20.3A9.37,9.37,0,0,1,125.4,332.6Z" transform="translate(0.9 -20.6)"/><rect class="cls-5" x="114.1" y="288" width="21.6" height="24"/><path class="cls-5" d="M163.6,332.6h-2.9a9.39,9.39,0,0,1-9.4-9.4V303a9.39,9.39,0,0,1,9.4-9.4h2.9A9.39,9.39,0,0,1,173,303v20.3A9.37,9.37,0,0,1,163.6,332.6Z" transform="translate(0.9 -20.6)"/><rect class="cls-5" x="152.3" y="288" width="21.6" height="24"/><path class="cls-5" d="M188.5,332.6h-2.9a9.39,9.39,0,0,1-9.4-9.4V303a9.39,9.39,0,0,1,9.4-9.4h2.9a9.39,9.39,0,0,1,9.4,9.4v20.3A9.37,9.37,0,0,1,188.5,332.6Z" transform="translate(0.9 -20.6)"/><rect class="cls-5" x="177.2" y="288" width="21.6" height="24"/><path class="cls-5" d="M213.5,332.6h-2.9a9.39,9.39,0,0,1-9.4-9.4V303a9.39,9.39,0,0,1,9.4-9.4h2.9a9.39,9.39,0,0,1,9.4,9.4v20.3A9.5,9.5,0,0,1,213.5,332.6Z" transform="translate(0.9 -20.6)"/><rect class="cls-5" x="202.1" y="288" width="21.6" height="24"/><path class="cls-5" d="M250.5,332.6h-2.9a9.39,9.39,0,0,1-9.4-9.4V303a9.39,9.39,0,0,1,9.4-9.4h2.9a9.39,9.39,0,0,1,9.4,9.4v20.3A9.37,9.37,0,0,1,250.5,332.6Z" transform="translate(0.9 -20.6)"/><rect class="cls-5" x="239.2" y="288" width="21.6" height="24"/><path class="cls-5" d="M275.4,332.6h-2.9a9.39,9.39,0,0,1-9.4-9.4V303a9.39,9.39,0,0,1,9.4-9.4h2.9a9.39,9.39,0,0,1,9.4,9.4v20.3A9.37,9.37,0,0,1,275.4,332.6Z" transform="translate(0.9 -20.6)"/><rect class="cls-5" x="264.1" y="288" width="21.6" height="24"/><path class="cls-5" d="M300.4,332.6h-2.9a9.39,9.39,0,0,1-9.4-9.4V303a9.39,9.39,0,0,1,9.4-9.4h2.9a9.39,9.39,0,0,1,9.4,9.4v20.3A9.5,9.5,0,0,1,300.4,332.6Z" transform="translate(0.9 -20.6)"/><rect class="cls-5" x="289" y="288" width="21.6" height="24"/><path class="cls-5" d="M336.5,332.6h-2.9a9.39,9.39,0,0,1-9.4-9.4V303a9.39,9.39,0,0,1,9.4-9.4h2.9a9.39,9.39,0,0,1,9.4,9.4v20.3A9.37,9.37,0,0,1,336.5,332.6Z" transform="translate(0.9 -20.6)"/><rect class="cls-5" x="325.2" y="288" width="21.6" height="24"/><path class="cls-5" d="M361.4,332.6h-2.9a9.39,9.39,0,0,1-9.4-9.4V303a9.39,9.39,0,0,1,9.4-9.4h2.9a9.39,9.39,0,0,1,9.4,9.4v20.3A9.37,9.37,0,0,1,361.4,332.6Z" transform="translate(0.9 -20.6)"/><rect class="cls-5" x="350.1" y="288" width="21.6" height="24"/><path class="cls-5" d="M386.4,332.6h-2.9a9.39,9.39,0,0,1-9.4-9.4V303a9.39,9.39,0,0,1,9.4-9.4h2.9a9.39,9.39,0,0,1,9.4,9.4v20.3A9.5,9.5,0,0,1,386.4,332.6Z" transform="translate(0.9 -20.6)"/><rect class="cls-5" x="375" y="288" width="21.6" height="24"/><path class="cls-5" d="M52,401.6H49.1a9.39,9.39,0,0,1-9.4-9.4V372a9.39,9.39,0,0,1,9.4-9.4H52a9.39,9.39,0,0,1,9.4,9.4v20.3A9.5,9.5,0,0,1,52,401.6Z" transform="translate(0.9 -20.6)"/><rect class="cls-5" x="40.6" y="357" width="21.6" height="24"/><path class="cls-5" d="M76.9,401.6H74a9.39,9.39,0,0,1-9.4-9.4V372a9.39,9.39,0,0,1,9.4-9.4h2.9a9.39,9.39,0,0,1,9.4,9.4v20.3A9.5,9.5,0,0,1,76.9,401.6Z" transform="translate(0.9 -20.6)"/><rect class="cls-5" x="65.5" y="357" width="21.6" height="24"/><path class="cls-5" d="M117.6,401.6h-2.9a9.39,9.39,0,0,1-9.4-9.4V372a9.39,9.39,0,0,1,9.4-9.4h2.9A9.39,9.39,0,0,1,127,372v20.3A9.5,9.5,0,0,1,117.6,401.6Z" transform="translate(0.9 -20.6)"/><rect class="cls-5" x="106.2" y="357" width="21.6" height="24"/><path class="cls-5" d="M142.5,401.6h-2.9a9.39,9.39,0,0,1-9.4-9.4V372a9.39,9.39,0,0,1,9.4-9.4h2.9a9.39,9.39,0,0,1,9.4,9.4v20.3A9.43,9.43,0,0,1,142.5,401.6Z" transform="translate(0.9 -20.6)"/><rect class="cls-5" x="131.2" y="357" width="21.6" height="24"/><path class="cls-5" d="M167.4,401.6h-2.9a9.39,9.39,0,0,1-9.4-9.4V372a9.39,9.39,0,0,1,9.4-9.4h2.9a9.39,9.39,0,0,1,9.4,9.4v20.3A9.37,9.37,0,0,1,167.4,401.6Z" transform="translate(0.9 -20.6)"/><rect class="cls-5" x="156.1" y="357" width="21.6" height="24"/><path class="cls-5" d="M205.6,401.6h-2.9a9.39,9.39,0,0,1-9.4-9.4V372a9.39,9.39,0,0,1,9.4-9.4h2.9A9.39,9.39,0,0,1,215,372v20.3A9.37,9.37,0,0,1,205.6,401.6Z" transform="translate(0.9 -20.6)"/><rect class="cls-5" x="194.3" y="357" width="21.6" height="24"/><path class="cls-5" d="M230.5,401.6h-2.9a9.39,9.39,0,0,1-9.4-9.4V372a9.39,9.39,0,0,1,9.4-9.4h2.9a9.39,9.39,0,0,1,9.4,9.4v20.3A9.37,9.37,0,0,1,230.5,401.6Z" transform="translate(0.9 -20.6)"/><rect class="cls-5" x="219.2" y="357" width="21.6" height="24"/><path class="cls-5" d="M255.5,401.6h-2.9a9.39,9.39,0,0,1-9.4-9.4V372a9.39,9.39,0,0,1,9.4-9.4h2.9a9.39,9.39,0,0,1,9.4,9.4v20.3A9.5,9.5,0,0,1,255.5,401.6Z" transform="translate(0.9 -20.6)"/><rect class="cls-5" x="244.1" y="357" width="21.6" height="24"/><path class="cls-5" d="M289.5,401.6h-2.9a9.39,9.39,0,0,1-9.4-9.4V372a9.39,9.39,0,0,1,9.4-9.4h2.9a9.39,9.39,0,0,1,9.4,9.4v20.3A9.37,9.37,0,0,1,289.5,401.6Z" transform="translate(0.9 -20.6)"/><rect class="cls-5" x="278.2" y="357" width="21.6" height="24"/><path class="cls-5" d="M314.4,401.6h-2.9a9.39,9.39,0,0,1-9.4-9.4V372a9.39,9.39,0,0,1,9.4-9.4h2.9a9.39,9.39,0,0,1,9.4,9.4v20.3A9.37,9.37,0,0,1,314.4,401.6Z" transform="translate(0.9 -20.6)"/><rect class="cls-5" x="303.1" y="357" width="21.6" height="24"/><path class="cls-5" d="M339.4,401.6h-2.9a9.39,9.39,0,0,1-9.4-9.4V372a9.39,9.39,0,0,1,9.4-9.4h2.9a9.39,9.39,0,0,1,9.4,9.4v20.3A9.5,9.5,0,0,1,339.4,401.6Z" transform="translate(0.9 -20.6)"/><rect class="cls-5" x="328" y="357" width="21.6" height="24"/><path class="cls-5" d="M377,401.6h-2.9a9.39,9.39,0,0,1-9.4-9.4V372a9.39,9.39,0,0,1,9.4-9.4H377a9.39,9.39,0,0,1,9.4,9.4v20.3A9.5,9.5,0,0,1,377,401.6Z" transform="translate(0.9 -20.6)"/><rect class="cls-5" x="365.6" y="357" width="21.6" height="24"/><path class="cls-5" d="M401.9,401.6H399a9.39,9.39,0,0,1-9.4-9.4V372a9.39,9.39,0,0,1,9.4-9.4h2.9a9.39,9.39,0,0,1,9.4,9.4v20.3A9.5,9.5,0,0,1,401.9,401.6Z" transform="translate(0.9 -20.6)"/><rect class="cls-5" x="390.5" y="357" width="21.6" height="24"/><path class="cls-5" d="M72.6,467.6H69.7a9.39,9.39,0,0,1-9.4-9.4V438a9.39,9.39,0,0,1,9.4-9.4h2.9A9.39,9.39,0,0,1,82,438v20.3A9.5,9.5,0,0,1,72.6,467.6Z" transform="translate(0.9 -20.6)"/><rect class="cls-5" x="61.2" y="423" width="21.6" height="24"/><path class="cls-5" d="M97.5,467.6H94.6a9.39,9.39,0,0,1-9.4-9.4V438a9.39,9.39,0,0,1,9.4-9.4h2.9a9.39,9.39,0,0,1,9.4,9.4v20.3A9.43,9.43,0,0,1,97.5,467.6Z" transform="translate(0.9 -20.6)"/><rect class="cls-5" x="86.2" y="423" width="21.6" height="24"/><path class="cls-5" d="M122.4,467.6h-2.9a9.39,9.39,0,0,1-9.4-9.4V438a9.39,9.39,0,0,1,9.4-9.4h2.9a9.39,9.39,0,0,1,9.4,9.4v20.3A9.37,9.37,0,0,1,122.4,467.6Z" transform="translate(0.9 -20.6)"/><rect class="cls-5" x="111.1" y="423" width="21.6" height="24"/><path class="cls-5" d="M160.6,467.6h-2.9a9.39,9.39,0,0,1-9.4-9.4V438a9.39,9.39,0,0,1,9.4-9.4h2.9A9.39,9.39,0,0,1,170,438v20.3A9.37,9.37,0,0,1,160.6,467.6Z" transform="translate(0.9 -20.6)"/><rect class="cls-5" x="149.3" y="423" width="21.6" height="24"/><path class="cls-5" d="M185.5,467.6h-2.9a9.39,9.39,0,0,1-9.4-9.4V438a9.39,9.39,0,0,1,9.4-9.4h2.9a9.39,9.39,0,0,1,9.4,9.4v20.3A9.37,9.37,0,0,1,185.5,467.6Z" transform="translate(0.9 -20.6)"/><rect class="cls-5" x="174.2" y="423" width="21.6" height="24"/><path class="cls-5" d="M210.5,467.6h-2.9a9.39,9.39,0,0,1-9.4-9.4V438a9.39,9.39,0,0,1,9.4-9.4h2.9a9.39,9.39,0,0,1,9.4,9.4v20.3A9.5,9.5,0,0,1,210.5,467.6Z" transform="translate(0.9 -20.6)"/><rect class="cls-5" x="199.1" y="423" width="21.6" height="24"/><path class="cls-5" d="M247.5,467.6h-2.9a9.39,9.39,0,0,1-9.4-9.4V438a9.39,9.39,0,0,1,9.4-9.4h2.9a9.39,9.39,0,0,1,9.4,9.4v20.3A9.37,9.37,0,0,1,247.5,467.6Z" transform="translate(0.9 -20.6)"/><rect class="cls-5" x="236.2" y="423" width="21.6" height="24"/><path class="cls-5" d="M272.4,467.6h-2.9a9.39,9.39,0,0,1-9.4-9.4V438a9.39,9.39,0,0,1,9.4-9.4h2.9a9.39,9.39,0,0,1,9.4,9.4v20.3A9.37,9.37,0,0,1,272.4,467.6Z" transform="translate(0.9 -20.6)"/><rect class="cls-5" x="261.1" y="423" width="21.6" height="24"/><path class="cls-5" d="M297.4,467.6h-2.9a9.39,9.39,0,0,1-9.4-9.4V438a9.39,9.39,0,0,1,9.4-9.4h2.9a9.39,9.39,0,0,1,9.4,9.4v20.3A9.5,9.5,0,0,1,297.4,467.6Z" transform="translate(0.9 -20.6)"/><rect class="cls-5" x="286" y="423" width="21.6" height="24"/><path class="cls-5" d="M333.5,467.6h-2.9a9.39,9.39,0,0,1-9.4-9.4V438a9.39,9.39,0,0,1,9.4-9.4h2.9a9.39,9.39,0,0,1,9.4,9.4v20.3A9.37,9.37,0,0,1,333.5,467.6Z" transform="translate(0.9 -20.6)"/><rect class="cls-5" x="322.2" y="423" width="21.6" height="24"/><path class="cls-5" d="M358.4,467.6h-2.9a9.39,9.39,0,0,1-9.4-9.4V438a9.39,9.39,0,0,1,9.4-9.4h2.9a9.39,9.39,0,0,1,9.4,9.4v20.3A9.37,9.37,0,0,1,358.4,467.6Z" transform="translate(0.9 -20.6)"/><rect class="cls-5" x="347.1" y="423" width="21.6" height="24"/><path class="cls-5" d="M383.4,467.6h-2.9a9.39,9.39,0,0,1-9.4-9.4V438a9.39,9.39,0,0,1,9.4-9.4h2.9a9.39,9.39,0,0,1,9.4,9.4v20.3A9.5,9.5,0,0,1,383.4,467.6Z" transform="translate(0.9 -20.6)"/><rect class="cls-5" x="372" y="423" width="21.6" height="24"/><path class="cls-5" d="M754,132.6h-2.9a9.39,9.39,0,0,1-9.4-9.4V103a9.39,9.39,0,0,1,9.4-9.4H754a9.39,9.39,0,0,1,9.4,9.4v20.3A9.5,9.5,0,0,1,754,132.6Z" transform="translate(0.9 -20.6)"/><rect class="cls-5" x="742.6" y="88" width="21.6" height="24"/><path class="cls-5" d="M822,132.6h-2.9a9.39,9.39,0,0,1-9.4-9.4V103a9.39,9.39,0,0,1,9.4-9.4H822a9.39,9.39,0,0,1,9.4,9.4v20.3A9.5,9.5,0,0,1,822,132.6Z" transform="translate(0.9 -20.6)"/><rect class="cls-5" x="810.6" y="88" width="21.6" height="24"/><path class="cls-5" d="M864,132.6h-2.9a9.39,9.39,0,0,1-9.4-9.4V103a9.39,9.39,0,0,1,9.4-9.4H864a9.39,9.39,0,0,1,9.4,9.4v20.3A9.5,9.5,0,0,1,864,132.6Z" transform="translate(0.9 -20.6)"/><rect class="cls-5" x="852.6" y="88" width="21.6" height="24"/><path class="cls-5" d="M1052,132.6h-2.9a9.39,9.39,0,0,1-9.4-9.4V103a9.39,9.39,0,0,1,9.4-9.4h2.9a9.39,9.39,0,0,1,9.4,9.4v20.3A9.5,9.5,0,0,1,1052,132.6Z" transform="translate(0.9 -20.6)"/><rect class="cls-5" x="1040.6" y="88" width="21.6" height="24"/><path class="cls-5" d="M940,132.6h-2.9a9.39,9.39,0,0,1-9.4-9.4V103a9.39,9.39,0,0,1,9.4-9.4H940a9.39,9.39,0,0,1,9.4,9.4v20.3A9.5,9.5,0,0,1,940,132.6Z" transform="translate(0.9 -20.6)"/><rect class="cls-5" x="928.6" y="88" width="21.6" height="24"/><path class="cls-5" d="M982,132.6h-2.9a9.39,9.39,0,0,1-9.4-9.4V103a9.39,9.39,0,0,1,9.4-9.4H982a9.39,9.39,0,0,1,9.4,9.4v20.3A9.5,9.5,0,0,1,982,132.6Z" transform="translate(0.9 -20.6)"/><rect class="cls-5" x="970.6" y="88" width="21.6" height="24"/><path class="cls-5" d="M754,198.6h-2.9a9.39,9.39,0,0,1-9.4-9.4V169a9.39,9.39,0,0,1,9.4-9.4H754a9.39,9.39,0,0,1,9.4,9.4v20.3A9.5,9.5,0,0,1,754,198.6Z" transform="translate(0.9 -20.6)"/><rect class="cls-5" x="742.6" y="154" width="21.6" height="24"/><path class="cls-5" d="M822,198.6h-2.9a9.39,9.39,0,0,1-9.4-9.4V169a9.39,9.39,0,0,1,9.4-9.4H822a9.39,9.39,0,0,1,9.4,9.4v20.3A9.5,9.5,0,0,1,822,198.6Z" transform="translate(0.9 -20.6)"/><rect class="cls-5" x="810.6" y="154" width="21.6" height="24"/><path class="cls-5" d="M864,198.6h-2.9a9.39,9.39,0,0,1-9.4-9.4V169a9.39,9.39,0,0,1,9.4-9.4H864a9.39,9.39,0,0,1,9.4,9.4v20.3A9.5,9.5,0,0,1,864,198.6Z" transform="translate(0.9 -20.6)"/><rect class="cls-5" x="852.6" y="154" width="21.6" height="24"/><path class="cls-5" d="M1052,198.6h-2.9a9.39,9.39,0,0,1-9.4-9.4V169a9.39,9.39,0,0,1,9.4-9.4h2.9a9.39,9.39,0,0,1,9.4,9.4v20.3A9.5,9.5,0,0,1,1052,198.6Z" transform="translate(0.9 -20.6)"/><rect class="cls-5" x="1040.6" y="154" width="21.6" height="24"/><path class="cls-5" d="M940,198.6h-2.9a9.39,9.39,0,0,1-9.4-9.4V169a9.39,9.39,0,0,1,9.4-9.4H940a9.39,9.39,0,0,1,9.4,9.4v20.3A9.5,9.5,0,0,1,940,198.6Z" transform="translate(0.9 -20.6)"/><rect class="cls-5" x="928.6" y="154" width="21.6" height="24"/><path class="cls-5" d="M982,198.6h-2.9a9.39,9.39,0,0,1-9.4-9.4V169a9.39,9.39,0,0,1,9.4-9.4H982a9.39,9.39,0,0,1,9.4,9.4v20.3A9.5,9.5,0,0,1,982,198.6Z" transform="translate(0.9 -20.6)"/><rect class="cls-5" x="970.6" y="154" width="21.6" height="24"/><path class="cls-5" d="M754,265.6h-2.9a9.39,9.39,0,0,1-9.4-9.4V236a9.39,9.39,0,0,1,9.4-9.4H754a9.39,9.39,0,0,1,9.4,9.4v20.3A9.5,9.5,0,0,1,754,265.6Z" transform="translate(0.9 -20.6)"/><rect class="cls-5" x="742.6" y="221" width="21.6" height="24"/><path class="cls-5" d="M822,265.6h-2.9a9.39,9.39,0,0,1-9.4-9.4V236a9.39,9.39,0,0,1,9.4-9.4H822a9.39,9.39,0,0,1,9.4,9.4v20.3A9.5,9.5,0,0,1,822,265.6Z" transform="translate(0.9 -20.6)"/><rect class="cls-5" x="810.6" y="221" width="21.6" height="24"/><path class="cls-5" d="M864,265.6h-2.9a9.39,9.39,0,0,1-9.4-9.4V236a9.39,9.39,0,0,1,9.4-9.4H864a9.39,9.39,0,0,1,9.4,9.4v20.3A9.5,9.5,0,0,1,864,265.6Z" transform="translate(0.9 -20.6)"/><rect class="cls-5" x="852.6" y="221" width="21.6" height="24"/><path class="cls-5" d="M1052,265.6h-2.9a9.39,9.39,0,0,1-9.4-9.4V236a9.39,9.39,0,0,1,9.4-9.4h2.9a9.39,9.39,0,0,1,9.4,9.4v20.3A9.5,9.5,0,0,1,1052,265.6Z" transform="translate(0.9 -20.6)"/><rect class="cls-5" x="1040.6" y="221" width="21.6" height="24"/><path class="cls-5" d="M940,265.6h-2.9a9.39,9.39,0,0,1-9.4-9.4V236a9.39,9.39,0,0,1,9.4-9.4H940a9.39,9.39,0,0,1,9.4,9.4v20.3A9.5,9.5,0,0,1,940,265.6Z" transform="translate(0.9 -20.6)"/><rect class="cls-5" x="928.6" y="221" width="21.6" height="24"/><path class="cls-5" d="M982,265.6h-2.9a9.39,9.39,0,0,1-9.4-9.4V236a9.39,9.39,0,0,1,9.4-9.4H982a9.39,9.39,0,0,1,9.4,9.4v20.3A9.5,9.5,0,0,1,982,265.6Z" transform="translate(0.9 -20.6)"/><rect class="cls-5" x="970.6" y="221" width="21.6" height="24"/><path class="cls-5" d="M754,332.6h-2.9a9.39,9.39,0,0,1-9.4-9.4V303a9.39,9.39,0,0,1,9.4-9.4H754a9.39,9.39,0,0,1,9.4,9.4v20.3A9.5,9.5,0,0,1,754,332.6Z" transform="translate(0.9 -20.6)"/><rect class="cls-5" x="742.6" y="288" width="21.6" height="24"/><path class="cls-5" d="M822,332.6h-2.9a9.39,9.39,0,0,1-9.4-9.4V303a9.39,9.39,0,0,1,9.4-9.4H822a9.39,9.39,0,0,1,9.4,9.4v20.3A9.5,9.5,0,0,1,822,332.6Z" transform="translate(0.9 -20.6)"/><rect class="cls-5" x="810.6" y="288" width="21.6" height="24"/><path class="cls-5" d="M864,332.6h-2.9a9.39,9.39,0,0,1-9.4-9.4V303a9.39,9.39,0,0,1,9.4-9.4H864a9.39,9.39,0,0,1,9.4,9.4v20.3A9.5,9.5,0,0,1,864,332.6Z" transform="translate(0.9 -20.6)"/><rect class="cls-5" x="852.6" y="288" width="21.6" height="24"/><path class="cls-5" d="M1052,332.6h-2.9a9.39,9.39,0,0,1-9.4-9.4V303a9.39,9.39,0,0,1,9.4-9.4h2.9a9.39,9.39,0,0,1,9.4,9.4v20.3A9.5,9.5,0,0,1,1052,332.6Z" transform="translate(0.9 -20.6)"/><rect class="cls-5" x="1040.6" y="288" width="21.6" height="24"/><path class="cls-5" d="M940,332.6h-2.9a9.39,9.39,0,0,1-9.4-9.4V303a9.39,9.39,0,0,1,9.4-9.4H940a9.39,9.39,0,0,1,9.4,9.4v20.3A9.5,9.5,0,0,1,940,332.6Z" transform="translate(0.9 -20.6)"/><rect class="cls-5" x="928.6" y="288" width="21.6" height="24"/><path class="cls-5" d="M982,332.6h-2.9a9.39,9.39,0,0,1-9.4-9.4V303a9.39,9.39,0,0,1,9.4-9.4H982a9.39,9.39,0,0,1,9.4,9.4v20.3A9.5,9.5,0,0,1,982,332.6Z" transform="translate(0.9 -20.6)"/><rect class="cls-5" x="970.6" y="288" width="21.6" height="24"/><path class="cls-5" d="M754,401.6h-2.9a9.39,9.39,0,0,1-9.4-9.4V372a9.39,9.39,0,0,1,9.4-9.4H754a9.39,9.39,0,0,1,9.4,9.4v20.3A9.5,9.5,0,0,1,754,401.6Z" transform="translate(0.9 -20.6)"/><rect class="cls-5" x="742.6" y="357" width="21.6" height="24"/><path class="cls-5" d="M822,401.6h-2.9a9.39,9.39,0,0,1-9.4-9.4V372a9.39,9.39,0,0,1,9.4-9.4H822a9.39,9.39,0,0,1,9.4,9.4v20.3A9.5,9.5,0,0,1,822,401.6Z" transform="translate(0.9 -20.6)"/><rect class="cls-5" x="810.6" y="357" width="21.6" height="24"/><path class="cls-5" d="M864,401.6h-2.9a9.39,9.39,0,0,1-9.4-9.4V372a9.39,9.39,0,0,1,9.4-9.4H864a9.39,9.39,0,0,1,9.4,9.4v20.3A9.5,9.5,0,0,1,864,401.6Z" transform="translate(0.9 -20.6)"/><rect class="cls-5" x="852.6" y="357" width="21.6" height="24"/><path class="cls-5" d="M1052,401.6h-2.9a9.39,9.39,0,0,1-9.4-9.4V372a9.39,9.39,0,0,1,9.4-9.4h2.9a9.39,9.39,0,0,1,9.4,9.4v20.3A9.5,9.5,0,0,1,1052,401.6Z" transform="translate(0.9 -20.6)"/><rect class="cls-5" x="1040.6" y="357" width="21.6" height="24"/><path class="cls-5" d="M940,401.6h-2.9a9.39,9.39,0,0,1-9.4-9.4V372a9.39,9.39,0,0,1,9.4-9.4H940a9.39,9.39,0,0,1,9.4,9.4v20.3A9.5,9.5,0,0,1,940,401.6Z" transform="translate(0.9 -20.6)"/><rect class="cls-5" x="928.6" y="357" width="21.6" height="24"/><path class="cls-5" d="M982,401.6h-2.9a9.39,9.39,0,0,1-9.4-9.4V372a9.39,9.39,0,0,1,9.4-9.4H982a9.39,9.39,0,0,1,9.4,9.4v20.3A9.5,9.5,0,0,1,982,401.6Z" transform="translate(0.9 -20.6)"/><rect class="cls-5" x="970.6" y="357" width="21.6" height="24"/><path class="cls-5" d="M754,467.6h-2.9a9.39,9.39,0,0,1-9.4-9.4V438a9.39,9.39,0,0,1,9.4-9.4H754a9.39,9.39,0,0,1,9.4,9.4v20.3A9.5,9.5,0,0,1,754,467.6Z" transform="translate(0.9 -20.6)"/><rect class="cls-5" x="742.6" y="423" width="21.6" height="24"/><path class="cls-5" d="M822,467.6h-2.9a9.39,9.39,0,0,1-9.4-9.4V438a9.39,9.39,0,0,1,9.4-9.4H822a9.39,9.39,0,0,1,9.4,9.4v20.3A9.5,9.5,0,0,1,822,467.6Z" transform="translate(0.9 -20.6)"/><rect class="cls-5" x="810.6" y="423" width="21.6" height="24"/><path class="cls-5" d="M864,467.6h-2.9a9.39,9.39,0,0,1-9.4-9.4V438a9.39,9.39,0,0,1,9.4-9.4H864a9.39,9.39,0,0,1,9.4,9.4v20.3A9.5,9.5,0,0,1,864,467.6Z" transform="translate(0.9 -20.6)"/><rect class="cls-5" x="852.6" y="423" width="21.6" height="24"/><path class="cls-5" d="M1052,467.6h-2.9a9.39,9.39,0,0,1-9.4-9.4V438a9.39,9.39,0,0,1,9.4-9.4h2.9a9.39,9.39,0,0,1,9.4,9.4v20.3A9.5,9.5,0,0,1,1052,467.6Z" transform="translate(0.9 -20.6)"/><rect class="cls-5" x="1040.6" y="423" width="21.6" height="24"/><path class="cls-5" d="M940,467.6h-2.9a9.39,9.39,0,0,1-9.4-9.4V438a9.39,9.39,0,0,1,9.4-9.4H940a9.39,9.39,0,0,1,9.4,9.4v20.3A9.5,9.5,0,0,1,940,467.6Z" transform="translate(0.9 -20.6)"/><rect class="cls-5" x="928.6" y="423" width="21.6" height="24"/><path class="cls-5" d="M982,467.6h-2.9a9.39,9.39,0,0,1-9.4-9.4V438a9.39,9.39,0,0,1,9.4-9.4H982a9.39,9.39,0,0,1,9.4,9.4v20.3A9.5,9.5,0,0,1,982,467.6Z" transform="translate(0.9 -20.6)"/><rect class="cls-5" x="970.6" y="423" width="21.6" height="24"/><rect class="cls-5" x="389.2" y="471" width="38.4" height="64"/><line class="cls-6" x1="415.1" y1="503" x2="416.8" y2="503"/><line class="cls-6" x1="319" y1="471" x2="320.8" y2="471"/><rect class="cls-5" x="370.5" y="471" width="13.1" height="64"/><line class="cls-6" x1="379.3" y1="503" x2="379.9" y2="503"/><line class="cls-6" x1="346.6" y1="471" x2="347.2" y2="471"/><rect class="cls-5" x="432.5" y="471" width="13.1" height="64"/><line class="cls-6" x1="441.3" y1="503" x2="441.9" y2="503"/><line class="cls-6" x1="408.6" y1="471" x2="409.2" y2="471"/><rect class="cls-5" x="498.2" y="471" width="38.4" height="64"/><line class="cls-6" x1="524.1" y1="503" x2="525.8" y2="503"/><line class="cls-6" x1="428" y1="471" x2="429.8" y2="471"/><rect class="cls-5" x="479.5" y="471" width="13.1" height="64"/><line class="cls-6" x1="488.3" y1="503" x2="488.9" y2="503"/><line class="cls-6" x1="455.6" y1="471" x2="456.2" y2="471"/><rect class="cls-5" x="541.5" y="471" width="13.1" height="64"/><line class="cls-6" x1="550.3" y1="503" x2="550.9" y2="503"/><line class="cls-6" x1="517.6" y1="471" x2="518.2" y2="471"/><rect class="cls-5" x="602.2" y="471" width="38.4" height="64"/><line class="cls-6" x1="628.1" y1="503" x2="629.8" y2="503"/><line class="cls-6" x1="532" y1="471" x2="533.8" y2="471"/><rect class="cls-5" x="583.5" y="471" width="13.1" height="64"/><line class="cls-6" x1="592.3" y1="503" x2="592.9" y2="503"/><line class="cls-6" x1="559.6" y1="471" x2="560.2" y2="471"/><rect class="cls-5" x="645.5" y="471" width="13.1" height="64"/><line class="cls-6" x1="654.3" y1="503" x2="654.9" y2="503"/><line class="cls-6" x1="621.6" y1="471" x2="622.2" y2="471"/><rect class="cls-5" x="70.2" y="471" width="38.4" height="64"/><line class="cls-6" x1="96.1" y1="503" x2="97.8" y2="503"/><line class="cls-6" y1="471" x2="1.8" y2="471"/><rect class="cls-5" x="51.5" y="471" width="13.1" height="64"/><line class="cls-6" x1="60.3" y1="503" x2="60.9" y2="503"/><line class="cls-6" x1="27.6" y1="471" x2="28.2" y2="471"/><rect class="cls-5" x="113.5" y="471" width="13.1" height="64"/><line class="cls-6" x1="122.3" y1="503" x2="122.9" y2="503"/><line class="cls-6" x1="89.6" y1="471" x2="90.2" y2="471"/><rect class="cls-5" x="179.2" y="471" width="38.4" height="64"/><line class="cls-6" x1="205.1" y1="503" x2="206.8" y2="503"/><line class="cls-6" x1="109" y1="471" x2="110.8" y2="471"/><rect class="cls-5" x="160.5" y="471" width="13.1" height="64"/><line class="cls-6" x1="169.3" y1="503" x2="169.9" y2="503"/><line class="cls-6" x1="136.6" y1="471" x2="137.2" y2="471"/><rect class="cls-5" x="222.5" y="471" width="13.1" height="64"/><line class="cls-6" x1="231.3" y1="503" x2="231.9" y2="503"/><line class="cls-6" x1="198.6" y1="471" x2="199.2" y2="471"/><rect class="cls-5" x="283.2" y="471" width="38.4" height="64"/><line class="cls-6" x1="309.1" y1="503" x2="310.8" y2="503"/><line class="cls-6" x1="213" y1="471" x2="214.8" y2="471"/><rect class="cls-5" x="264.5" y="471" width="13.1" height="64"/><line class="cls-6" x1="273.3" y1="503" x2="273.9" y2="503"/><line class="cls-6" x1="240.6" y1="471" x2="241.2" y2="471"/><rect class="cls-5" x="326.5" y="471" width="13.1" height="64"/><line class="cls-6" x1="335.3" y1="503" x2="335.9" y2="503"/><line class="cls-6" x1="302.6" y1="471" x2="303.2" y2="471"/><rect class="cls-5" x="707.2" y="471" width="38.4" height="64"/><line class="cls-6" x1="733.1" y1="503" x2="734.8" y2="503"/><line class="cls-6" x1="637" y1="471" x2="638.8" y2="471"/><rect class="cls-5" x="688.5" y="471" width="13.1" height="64"/><line class="cls-6" x1="697.3" y1="503" x2="697.9" y2="503"/><line class="cls-6" x1="664.6" y1="471" x2="665.2" y2="471"/><rect class="cls-5" x="750.5" y="471" width="13.1" height="64"/><line class="cls-6" x1="759.3" y1="503" x2="759.9" y2="503"/><line class="cls-6" x1="726.6" y1="471" x2="727.2" y2="471"/><rect class="cls-5" x="816.2" y="471" width="38.4" height="64"/><line class="cls-6" x1="842.1" y1="503" x2="843.8" y2="503"/><line class="cls-6" x1="746" y1="471" x2="747.8" y2="471"/><rect class="cls-5" x="797.5" y="471" width="13.1" height="64"/><line class="cls-6" x1="806.3" y1="503" x2="806.9" y2="503"/><line class="cls-6" x1="773.6" y1="471" x2="774.2" y2="471"/><rect class="cls-5" x="859.5" y="471" width="13.1" height="64"/><line class="cls-6" x1="868.3" y1="503" x2="868.9" y2="503"/><line class="cls-6" x1="835.6" y1="471" x2="836.2" y2="471"/><rect class="cls-5" x="920.2" y="471" width="38.4" height="64"/><line class="cls-6" x1="946.1" y1="503" x2="947.8" y2="503"/><line class="cls-6" x1="850" y1="471" x2="851.8" y2="471"/><rect class="cls-5" x="901.5" y="471" width="13.1" height="64"/><line class="cls-6" x1="910.3" y1="503" x2="910.9" y2="503"/><line class="cls-6" x1="877.6" y1="471" x2="878.2" y2="471"/><rect class="cls-5" x="963.5" y="471" width="13.1" height="64"/><line class="cls-6" x1="972.3" y1="503" x2="972.9" y2="503"/><line class="cls-6" x1="939.6" y1="471" x2="940.2" y2="471"/><rect class="cls-5" x="1024.2" y="471" width="38.4" height="64"/><line class="cls-6" x1="1050.1" y1="503" x2="1051.8" y2="503"/><line class="cls-6" x1="954" y1="471" x2="955.8" y2="471"/><rect class="cls-5" x="1005.5" y="471" width="13.1" height="64"/><line class="cls-6" x1="1014.3" y1="503" x2="1014.9" y2="503"/><line class="cls-6" x1="981.6" y1="471" x2="982.2" y2="471"/><rect class="cls-5" x="1067.5" y="471" width="13.1" height="64"/><line class="cls-6" x1="1076.3" y1="503" x2="1076.9" y2="503"/><line class="cls-6" x1="1043.6" y1="471" x2="1044.2" y2="471"/><g class="cls-3"><rect class="cls-4" x="99.6" y="19" width="252" height="36"/></g><path d="M1131.07,506.74a2.43,2.43,0,0,1-1.65,3l-19.17,4.66a2.42,2.42,0,0,1-2.84-1.9h0a2.42,2.42,0,0,1,1.65-3l19.17-4.66a2.41,2.41,0,0,1,2.84,1.9Z" transform="translate(0.9 -20.6)"/><path d="M1153,518.81l-33-11.63a2.7,2.7,0,0,0-1.78,5.05l33,11.62a2.69,2.69,0,0,0,1.78-5Z" transform="translate(0.9 -20.6)"/><circle class="cls-7" cx="1120.16" cy="489.1" r="1.14"/><rect class="cls-8" x="1121.5" y="395.72" width="4.77" height="29.49" transform="translate(-64.26 256.55) rotate(-13.67)"/><polygon class="cls-9" points="1124.25 404.82 1124.43 405.57 1123.12 405.89 1124.26 410.58 1125.57 410.26 1125.75 411 1134.1 408.97 1132.6 402.79 1124.25 404.82"/><path class="cls-10" d="M1106.85,398.64c-8.63-.9-17.57-3.35-18.32-5.39-1.17-3.19.44-13.71.44-13.71s.21-.17.52-.38C1095.14,381.53,1105.07,387.24,1106.85,398.64Z" transform="translate(0.9 -20.6)"/><path class="cls-11" d="M1143.49,361.81c-2.4,4.07-4.81,11.4-2.36,23.07-6.06,4.82-15.66,11.81-21.37,13.4-3.15.87-8,.87-12.91.36-1.78-11.4-11.71-17.11-17.36-19.48a7.47,7.47,0,0,1,1.93-1c.94-.22,7.6,1.44,9,1.8s16.32.34,18.44-.32c5.87-1.82,7.76-3.87,10.23-6s8.76-7.69,8.86-8.11,4-3.35,5.54-3.74Z" transform="translate(0.9 -20.6)"/><path class="cls-10" d="M1152.49,371.61c.41,2.08-5.15,7.74-5.83,8.6-.23.3-2.42,2.2-5.53,4.67-2.45-11.67,0-19,2.36-23.07C1145.12,361.48,1152.09,369.53,1152.49,371.61Z" transform="translate(0.9 -20.6)"/><path d="M1087.75,389.2s-.14,4.2.44,4.56,4,3.6,9.16,3.73c1-1.72-.07-4.76-.47-5.2C1095.74,391.05,1088.24,389.27,1087.75,389.2Z" transform="translate(0.9 -20.6)"/><path d="M1151.74,365.69s-4.36,7.42-6.28,8.48,1.49,6.15,1.49,6.15a84.7,84.7,0,0,1,8.54-7.39c3.08-2,6.75-1.25,7.31-1.78S1161.34,361.87,1151.74,365.69Z" transform="translate(0.9 -20.6)"/><line class="cls-12" x1="1123.38" y1="462.35" x2="1149.35" y2="501.1"/><line class="cls-12" x1="1123.38" y1="462.35" x2="1149.63" y2="501.78"/><line class="cls-12" x1="1108.2" y1="481.79" x2="1150.65" y2="502.81"/><line class="cls-12" x1="1104.78" y1="506.21" x2="1152.06" y2="503.19"/><line class="cls-12" x1="1114.03" y1="529.07" x2="1153.46" y2="502.82"/><line class="cls-12" x1="1133.47" y1="544.24" x2="1154.49" y2="501.79"/><line class="cls-12" x1="1157.89" y1="547.66" x2="1154.87" y2="500.39"/><line class="cls-12" x1="1180.75" y1="538.41" x2="1154.5" y2="498.98"/><line class="cls-12" x1="1195.92" y1="518.97" x2="1153.47" y2="497.95"/><line class="cls-12" x1="1199.34" y1="494.55" x2="1152.07" y2="497.57"/><line class="cls-12" x1="1190.09" y1="471.7" x2="1150.66" y2="497.95"/><line class="cls-12" x1="1170.65" y1="456.52" x2="1149.63" y2="498.97"/><line class="cls-12" x1="1146.23" y1="453.1" x2="1149.25" y2="500.37"/><line class="cls-12" x1="1112.02" y1="471.34" x2="1153.47" y2="497.95"/><line class="cls-12" x1="1102.84" y1="495.26" x2="1152.04" y2="497.59"/><line class="cls-12" x1="1106.85" y1="520.58" x2="1150.62" y2="497.99"/><line class="cls-12" x1="1122.98" y1="540.49" x2="1149.59" y2="499.04"/><line class="cls-12" x1="1146.9" y1="549.68" x2="1149.22" y2="500.47"/><line class="cls-12" x1="1172.21" y1="545.66" x2="1149.62" y2="501.89"/><line class="cls-12" x1="1192.13" y1="529.54" x2="1150.68" y2="502.92"/><line class="cls-12" x1="1201.31" y1="505.61" x2="1152.11" y2="503.29"/><line class="cls-12" x1="1197.3" y1="480.3" x2="1153.53" y2="502.89"/><line class="cls-12" x1="1181.17" y1="460.38" x2="1154.56" y2="501.83"/><line class="cls-12" x1="1157.25" y1="451.2" x2="1154.93" y2="500.4"/><line class="cls-12" x1="1131.94" y1="455.21" x2="1154.53" y2="498.98"/><circle class="cls-13" cx="1152.07" cy="500.44" r="49.51"/><path d="M1213,507.92l-.9-3.72-1.42.35c-.14-.5-.28-1-.43-1.49l1.38-.47-1.23-3.63-1.38.47c-.18-.49-.37-1-.56-1.45l1.34-.59-1.54-3.5-1.33.58c-.22-.47-.45-.93-.69-1.4l1.28-.69-1.84-3.36-1.28.7c-.26-.45-.53-.9-.8-1.34l1.21-.8-2.12-3.19-1.22.81c-.3-.42-.61-.84-.92-1.25l1.15-.92-2.4-3-1.14.92-1-1.17,1.07-1L1195.5,476l-1.07,1-1.12-1.08,1-1.11-2.87-2.53-1,1.12c-.4-.33-.81-.66-1.22-1l.88-1.2L1187,469l-.88,1.2-1.29-.86.77-1.28-3.27-2-.77,1.28c-.45-.26-.91-.51-1.36-.75l.66-1.34-3.43-1.7-.66,1.34-1.42-.64.54-1.38-3.57-1.39-.54,1.38c-.48-.17-1-.34-1.47-.5l.42-1.42-3.67-1.08-.42,1.41-1.51-.37.29-1.44-3.75-.75-.29,1.43c-.51-.09-1-.17-1.54-.24l.17-1.45-3.81-.42-.16,1.45c-.52-.05-1-.08-1.55-.11l0-1.46-3.83-.09,0,1.46-1.56,0-.09-1.45-3.82.24.1,1.46c-.52.05-1,.1-1.55.17l-.22-1.44-3.79.57.23,1.44-1.53.31-.35-1.42-3.71.9.34,1.42-1.5.43-.46-1.38-3.63,1.23.47,1.38-1.45.56-.59-1.33-3.5,1.53.58,1.33c-.47.22-.94.45-1.4.69l-.69-1.28-3.36,1.84.7,1.28-1.34.8-.8-1.21-3.19,2.12.81,1.22c-.42.3-.84.6-1.26.92l-.91-1.14-3,2.39.92,1.14-1.17,1-1-1.06-2.77,2.64,1,1.07c-.37.37-.72.74-1.08,1.12l-1.11-1-2.52,2.88,1.11,1c-.33.4-.66.81-1,1.22l-1.19-.88-2.27,3.08,1.2.88-.86,1.29-1.27-.77-2,3.27,1.27.77c-.26.45-.51.91-.75,1.36l-1.34-.66-1.69,3.43,1.32.66-.63,1.42-1.37-.54-1.4,3.57,1.38.54c-.18.48-.34,1-.51,1.47l-1.41-.42-1.08,3.68,1.41.41c-.13.5-.26,1-.37,1.51l-1.44-.29-.75,3.75,1.43.29c-.09.51-.17,1-.24,1.54l-1.45-.16-.42,3.8,1.44.16c0,.52-.07,1-.1,1.55l-1.45,0-.09,3.83,1.45,0q0,.78,0,1.56l-1.45.09.25,3.82,1.45-.09c0,.51.1,1,.16,1.54l-1.43.22.57,3.79,1.44-.22.3,1.52-1.41.35.9,3.72,1.42-.35c.14.5.28,1,.43,1.5l-1.38.46L1092,543l1.38-.47c.18.49.36,1,.56,1.46l-1.33.58,1.53,3.5,1.33-.58c.22.47.45.94.69,1.4l-1.28.69,1.84,3.36,1.27-.69.81,1.33-1.21.8,2.12,3.19,1.21-.81.92,1.26-1.13.91,2.39,3,1.14-.92c.34.4.68.79,1,1.17l-1.06,1,2.64,2.77,1.06-1c.37.37.75.73,1.13,1.08l-1,1.11,2.88,2.53,1-1.11c.4.33.81.65,1.22,1l-.88,1.19,3.08,2.27.88-1.2,1.29.87-.77,1.27,3.27,2,.77-1.27,1.36.75-.66,1.33,3.43,1.7.66-1.33,1.42.63-.54,1.38,3.57,1.39.54-1.38c.48.18,1,.34,1.47.51l-.42,1.41,3.68,1.08.41-1.41c.5.13,1,.26,1.51.37l-.29,1.44,3.75.75.29-1.43c.51.09,1,.17,1.54.24l-.16,1.45,3.8.42.16-1.44,1.55.1,0,1.46,3.83.09,0-1.45,1.56,0,.09,1.45,3.82-.24-.1-1.46,1.55-.16.22,1.44,3.79-.58-.22-1.44,1.52-.3.35,1.41,3.72-.9-.35-1.42,1.5-.43.46,1.38,3.63-1.23-.47-1.38c.49-.18,1-.36,1.45-.56l.59,1.34,3.5-1.54-.58-1.33c.47-.22.94-.45,1.4-.69l.7,1.28,3.35-1.84-.7-1.27,1.34-.81.8,1.21,3.19-2.12-.81-1.21,1.26-.93.91,1.15,3-2.4-.92-1.14,1.17-1,1,1.07,2.77-2.65-1-1.06c.37-.37.72-.75,1.08-1.13l1.11,1,2.53-2.88-1.12-1c.33-.4.66-.81,1-1.22l1.19.88,2.27-3.08L1202,556l.86-1.29,1.28.77,2-3.27-1.28-.77c.26-.45.51-.91.75-1.36l1.34.66,1.7-3.43-1.33-.66.63-1.42,1.38.54,1.39-3.57-1.38-.54c.17-.48.34-1,.5-1.47l1.42.42,1.08-3.67-1.41-.42c.13-.5.25-1,.37-1.51l1.44.29.75-3.75-1.43-.29c.09-.51.17-1,.24-1.54l1.45.17.42-3.81-1.44-.16c0-.52.07-1,.1-1.55l1.46,0,.09-3.82-1.46,0c0-.52,0-1,0-1.55l1.45-.1L1214,515l-1.46.1c0-.52-.1-1-.17-1.55l1.45-.22-.58-3.78-1.45.22q-.13-.76-.3-1.53Zm-12.08,1a51.16,51.16,0,1,1-61.8-37.62A51.22,51.22,0,0,1,1200.87,508.9Z" transform="translate(0.9 -20.6)"/><path class="cls-14" d="M1154.77,518.91a3.72,3.72,0,0,0-1.6-1.29l-21.32-87.72-6.36,1.55,21.33,87.71A3.82,3.82,0,0,0,1146,521l-2.47.6.55,2.26,2.47-.6a5.12,5.12,0,0,0,8.78-2.14l2.47-.6-.55-2.25Z" transform="translate(0.9 -20.6)"/><path d="M1184.07,529.74l-33-11.62a2.69,2.69,0,0,0-1.78,5l33,11.62a2.69,2.69,0,0,0,1.77-5Z" transform="translate(0.9 -20.6)"/><circle class="cls-7" cx="1150.57" cy="520.74" r="1.5" transform="translate(-89.56 265.98) rotate(-13.67)"/><line class="cls-15" x1="1131.5" y1="431.86" x2="1137.86" y2="430.31"/><path d="M1194.6,529.86a2.42,2.42,0,0,1-1.64,3l-19.17,4.66a2.42,2.42,0,0,1-2.84-1.9h0a2.42,2.42,0,0,1,1.65-3l19.17-4.66a2.41,2.41,0,0,1,2.83,1.9Z" transform="translate(0.9 -20.6)"/><circle class="cls-7" cx="1182.8" cy="532.82" r="1.14" transform="translate(-91.5 273.93) rotate(-13.67)"/></svg>