<?xml version="1.0" encoding="utf-8"?>
<!-- Generator: Adobe Illustrator 22.0.1, SVG Export Plug-In . SVG Version: 6.00 Build 0)  -->
<svg version="1.1" id="Layer_1" xmlns="http://www.w3.org/2000/svg" xmlns:xlink="http://www.w3.org/1999/xlink" x="0px" y="0px"
	 viewBox="0 0 1971.9 731.8" style="enable-background:new 0 0 1971.9 731.8;" xml:space="preserve">
<style type="text/css">
	.st0{fill:#E6E6E6;}
	.st1{fill:#666666;}
	.st2{fill:#666666;stroke:#4D4D4D;stroke-width:2;stroke-miterlimit:10;}
	.st3{fill:#B37150;stroke:#B37150;stroke-miterlimit:10;}
	.st4{fill:#D66E40;}
	.st5{fill:#C7714B;}
	.st6{fill:#9FBDFF;stroke:#999999;stroke-width:2;stroke-miterlimit:10;}
	.st7{fill:#C7714B;stroke:#B15F4B;stroke-miterlimit:10;}
	.st8{fill:#FFFFFF;}
	.st9{fill:#D66E52;}
	.st10{fill:#9FBDFF;stroke:#999999;stroke-width:3;stroke-miterlimit:10;}
	.st11{fill:#9FDDFF;stroke:#999999;stroke-width:3;stroke-miterlimit:10;}
	.st12{fill:#B3B3B3;stroke:#808080;stroke-miterlimit:10;}
	.st13{fill:#B3B3B3;}
	.st14{fill:#CCCCCC;stroke:#808080;stroke-miterlimit:10;}
	.st15{fill:#999999;}
	.st16{fill:none;stroke:#999999;stroke-miterlimit:10;}
	.st17{fill:none;stroke:#B37150;stroke-miterlimit:10;}
	.st18{fill:#D66E40;stroke:#B37150;stroke-miterlimit:10;}
	.st19{fill:#CCCCCC;stroke:#999999;stroke-miterlimit:10;}
	.st20{fill:#CCCCCC;}
	.st21{fill:none;stroke:#B3B3B3;stroke-miterlimit:10;}
	.st22{fill:#CCCCCC;stroke:#B3B3B3;stroke-linecap:round;stroke-miterlimit:10;}
	.st23{fill:#E6E6E6;stroke:#808080;stroke-width:2;stroke-miterlimit:10;}
	.st24{fill:#CCCCCC;stroke:#808080;stroke-width:2;stroke-miterlimit:10;}
	.st25{fill:none;stroke:#808080;stroke-width:2;stroke-miterlimit:10;}
	.st26{fill:#B3B3B3;stroke:#808080;stroke-width:2;stroke-miterlimit:10;}
	.st27{fill:#CCCCCC;stroke:#B3B3B3;stroke-width:2;stroke-miterlimit:10;}
	.st28{fill:#E6E6E6;stroke:#808080;stroke-miterlimit:10;}
	.st29{fill:none;stroke:#CCCCCC;stroke-miterlimit:10;}
	.st30{fill:#9FBDFF;stroke:#B3B3B3;stroke-width:2;stroke-miterlimit:10;}
	.st31{fill:#9FDDFF;stroke:#B3B3B3;stroke-width:2;stroke-miterlimit:10;}
	.st32{fill:#CCCCCC;stroke:#B3B3B3;stroke-miterlimit:10;}
	.st33{fill:#9FBDFF;stroke:#999999;stroke-width:1.5;stroke-miterlimit:10;}
</style>
<rect x="837.2" y="183.9" class="st0" width="374" height="241"/>
<polyline class="st1" points="385.2,679.9 545.2,678.9 551.4,493.8 363.2,498.9 "/>
<polyline class="st2" points="1769.2,459.9 1647.2,488.9 1663.2,661.9 1712.2,649.9 1765.7,659.4 1900.7,658.9 1840.7,448.4 "/>
<rect x="518.9" y="360.3" transform="matrix(0.7295 -0.684 0.684 0.7295 -128.7546 553.9662)" class="st3" width="234.3" height="158.9"/>
<polyline class="st4" points="546.9,438.3 628,472.9 761,415.9 766.3,60.9 641.9,97.9 565.8,70.1 505.2,280.9 "/>
<polygon class="st5" points="545.5,620.6 633.2,652.9 775.2,585.7 775.2,415.9 628.2,483.2 545.4,449.4 "/>
<polygon class="st5" points="545.5,678.6 633.2,710.9 775.2,643.7 775.2,473.9 628.2,541.2 545.4,507.4 "/>
<polygon class="st6" points="567.2,563.3 604,579.9 605.2,514.6 567.2,499.2 "/>
<line class="st6" x1="585" y1="507.5" x2="585" y2="571.6"/>
<polygon class="st7" points="1327.2,106.9 1252.2,81.9 1589.2,81.9 1659.7,106.9 "/>
<polyline class="st5" points="1310.1,653 1326.9,662 1327.5,107 1275.8,89.3 1220.2,415.9 "/>
<rect x="973.2" y="254.9" class="st8" width="24" height="98"/>
<g>
	<rect x="45.2" y="36.9" class="st4" width="245" height="425"/>
</g>
<g>
	<rect x="79.2" y="17.9" class="st9" width="211" height="19"/>
</g>
<polygon class="st10" points="103.2,110.7 84.2,110.7 65.2,110.7 65.2,67.9 103.2,67.9 "/>
<line class="st11" x1="83.9" y1="68.2" x2="83.9" y2="111"/>
<polygon class="st10" points="103.2,172.8 84.2,172.8 65.2,172.8 65.2,130 103.2,130 "/>
<line class="st11" x1="83.9" y1="130.3" x2="83.9" y2="173.1"/>
<polygon class="st10" points="103.2,234.8 84.2,234.8 65.2,234.8 65.2,192.1 103.2,192.1 "/>
<line class="st11" x1="83.9" y1="192.4" x2="83.9" y2="235.1"/>
<polygon class="st10" points="103.2,296.9 84.2,296.9 65.2,296.9 65.2,254.2 103.2,254.2 "/>
<line class="st11" x1="83.9" y1="254.5" x2="83.9" y2="297.2"/>
<polygon class="st10" points="103.2,359.9 84.2,359.9 65.2,359.9 65.2,317.1 103.2,317.1 "/>
<line class="st11" x1="83.9" y1="317.4" x2="83.9" y2="360.1"/>
<polygon class="st10" points="103.2,423.9 84.2,423.9 65.2,423.9 65.2,381.1 103.2,381.1 "/>
<line class="st11" x1="83.9" y1="381.4" x2="83.9" y2="424.1"/>
<g>
	<rect x="28.2" y="438.9" class="st5" width="215" height="240"/>
</g>
<polyline class="st12" points="329.7,297.4 197.2,296.9 244.2,678.9 384.7,679.4 384.7,43.4 338.2,42.9 258.2,42.9 263.5,296.9 "/>
<polygon class="st10" points="120.2,540.8 92.7,540.8 65.2,540.8 65.2,478.9 120.2,478.9 "/>
<line class="st11" x1="92.3" y1="479.4" x2="92.3" y2="541.2"/>
<polygon class="st10" points="120.2,638.8 92.7,638.8 65.2,638.8 65.2,576.9 120.2,576.9 "/>
<line class="st11" x1="92.3" y1="577.4" x2="92.3" y2="639.2"/>
<path class="st13" d="M941.2,153.9"/>
<line class="st14" x1="539.7" y1="271.4" x2="489.7" y2="272.4"/>
<line class="st0" x1="321.2" y1="565.9" x2="353.2" y2="487.9"/>
<line class="st15" x1="378.2" y1="477.9" x2="353.2" y2="487.9"/>
<line class="st15" x1="321.2" y1="565.9" x2="353.2" y2="487.9"/>
<polyline class="st16" points="557.1,474.2 595.7,566.4 557.7,527.4 514.7,566.4 484.7,534.4 430.2,565.9 382.2,533.9 321.2,565.9 
	353.2,487.9 378.2,477.9 "/>
<path class="st5" d="M537.2,638.9"/>
<line class="st17" x1="634.7" y1="710.4" x2="627.7" y2="482.4"/>
<polyline class="st18" points="627.7,472.4 641.7,98.4 505.2,51.4 641.7,22.4 766.7,61.4 "/>
<line class="st18" x1="641.7" y1="98.4" x2="766.7" y2="61.4"/>
<path class="st19" d="M792.7,137.4c33.2,2.5,89.5,13.7,138.2,64.5c8.4,8.8,15.8,17.9,22.3,27"/>
<path class="st20" d="M1027.2,175.9l-24,177C1027.2,175.9,1027.2,175.9,1027.2,175.9z"/>
<path class="st21" d="M1027.7,183.4l-23.4,172.2c36.1,14.9,96.8,33.7,171.9,27.1c31.7-2.8,59.3-9.5,82-17"/>
<rect x="762.2" y="65.9" class="st0" width="515" height="241"/>
<path class="st19" d="M991.7,366.9v230.1c17.5,16.1,107.6,95.5,230.7,83.7c41-3.9,74.2-16.9,97.8-29.1l-55.6-284.8l30.5-174.5"/>
<polyline class="st20" points="1003.7,352.4 1027.7,173.4 1290.7,192.4 1019.7,402.4 "/>
<ellipse transform="matrix(4.872255e-02 -0.9988 0.9988 4.872255e-02 923.8118 1334.6675)" class="st22" cx="1162.6" cy="182.3" rx="29.2" ry="135.2"/>
<g>
	<rect x="1327.2" y="106.9" class="st4" width="336" height="555"/>
</g>
<path class="st19" d="M1021.7,552.4c-19.9,7.3-47.3,14.4-80,14c-88.8-1-149.4-55.8-166.5-72.5l-34.5,162.5
	c13.9,9.7,90.1,61.1,187,40c56.7-12.3,94.1-43.7,111-60L1021.7,552.4z"/>
<polyline class="st23" points="1697.6,567.9 1685.3,506.9 1637.3,535.1 1671,488.5 1706.4,471.3 1716.5,525.1 "/>
<line class="st24" x1="1698.7" y1="566.4" x2="1716.7" y2="523.4"/>
<line class="st25" x1="1683.7" y1="507.4" x2="1702.7" y2="471.4"/>
<line class="st19" x1="1764.1" y1="574.7" x2="1757" y2="658.9"/>
<path class="st19" d="M1757,658.9c-2.7,1.4-12.6,6.1-25.1,3.3c-11.3-2.5-18-9.6-20.1-12l24.7-80.8c0.6,0.9,4.5,7.2,12.6,8.5
	c8.3,1.4,14.3-3.5,15.1-4.2"/>
<path class="st19" d="M1926.5,644.5c-1.6,2.6-7.9,11.5-20.1,15.4c-11.1,3.5-20.4,0.7-23.4-0.4l-18.9-82.3c1,0.5,7.5,4,15.2,1.1
	c7.9-2.9,10.6-10.2,11-11.2"/>
<polyline class="st19" points="1926.5,644.5 1890.6,568.1 1870,526.9 1850.6,523.9 1864.1,576.8 "/>
<path class="st23" d="M1802,500.1l19.7,37.3c19.4,16.1,19,15.6,19,15.6l-16.6-34.8l52.6,14.6l50.2-21.6l-43-13.2l-25.9,11.7
	L1802,500.1l22.1,18.1"/>
<polyline class="st19" points="1757,658.9 1764.1,574.7 1764.7,540.4 1746.7,539.4 1736.7,569.4 "/>
<polyline class="st26" points="1861.8,59.4 1949.2,81.4 1777.9,95.9 1697.3,72.9 "/>
<path class="st26" d="M1777.9,95.9"/>
<path class="st26" d="M1715.7,298.9"/>
<polyline class="st26" points="1731.9,313.1 1777.9,95.9 1697.3,72.9 1861.8,59.4 1698,72.4 1777.2,95.4 1698,72.4 "/>
<polyline class="st27" points="1662.2,108.9 1692.2,105.2 1663,340.1 "/>
<polyline class="st28" points="1714.7,556.3 1729.3,510.6 1799.2,510.6 1815.2,556.3 "/>
<path class="st26" d="M1800.2,557.9c0,0-3-1,22,30.5l-7.2-31.5h-14.3h-1h-84.3l-7.2,31.5l21-31.5"/>
<polyline class="st26" points="1764.9,520.4 1724,351.4 1777.2,95.4 1949.2,81.4 1855,349.4 1885,505.4 1764.9,522.4 1663.2,483.3 
	1663.2,471.4 1663.2,351.7 1698,72.4 "/>
<polygon class="st10" points="301.2,659.9 282.2,659.9 263.2,659.9 263.2,617.1 301.2,617.1 "/>
<line class="st11" x1="281.9" y1="617.4" x2="281.9" y2="660.1"/>
<polygon class="st10" points="293.2,586.9 274.2,586.9 255.2,586.9 255.2,544.1 293.2,544.1 "/>
<line class="st11" x1="273.9" y1="544.4" x2="273.9" y2="587.1"/>
<polygon class="st10" points="289.2,514.9 270.2,514.9 251.2,514.9 251.2,472.1 289.2,472.1 "/>
<line class="st11" x1="269.9" y1="472.4" x2="269.9" y2="515.1"/>
<polygon class="st10" points="282.2,439.9 263.2,439.9 244.2,439.9 244.2,397.1 282.2,397.1 "/>
<line class="st11" x1="262.9" y1="397.4" x2="262.9" y2="440.1"/>
<polygon class="st10" points="277.2,362.9 258.2,362.9 239.2,362.9 239.2,320.1 277.2,320.1 "/>
<line class="st11" x1="257.9" y1="320.4" x2="257.9" y2="363.1"/>
<polygon class="st10" points="359.2,659.9 340.2,659.9 321.2,659.9 321.2,617.1 359.2,617.1 "/>
<line class="st11" x1="339.9" y1="617.4" x2="339.9" y2="660.1"/>
<polygon class="st10" points="351.2,586.9 332.2,586.9 313.2,586.9 313.2,544.1 351.2,544.1 "/>
<polygon class="st10" points="293.2,586.9 274.2,586.9 255.2,586.9 255.2,544.1 293.2,544.1 "/>
<line class="st11" x1="331.9" y1="544.4" x2="331.9" y2="587.1"/>
<line class="st11" x1="273.9" y1="544.4" x2="273.9" y2="587.1"/>
<polygon class="st10" points="289.2,514.9 270.2,514.9 251.2,514.9 251.2,472.1 289.2,472.1 "/>
<line class="st11" x1="269.9" y1="472.4" x2="269.9" y2="515.1"/>
<polygon class="st10" points="347.2,514.9 328.2,514.9 309.2,514.9 309.2,472.1 347.2,472.1 "/>
<line class="st11" x1="327.9" y1="472.4" x2="327.9" y2="515.1"/>
<polygon class="st10" points="282.2,439.9 263.2,439.9 244.2,439.9 244.2,397.1 282.2,397.1 "/>
<line class="st11" x1="262.9" y1="397.4" x2="262.9" y2="440.1"/>
<polygon class="st10" points="340.2,439.9 321.2,439.9 302.2,439.9 302.2,397.1 340.2,397.1 "/>
<line class="st11" x1="320.9" y1="397.4" x2="320.9" y2="440.1"/>
<polygon class="st10" points="277.2,362.9 258.2,362.9 239.2,362.9 239.2,320.1 277.2,320.1 "/>
<line class="st11" x1="257.9" y1="320.4" x2="257.9" y2="363.1"/>
<polygon class="st10" points="335.2,362.9 316.2,362.9 297.2,362.9 297.2,320.1 335.2,320.1 "/>
<line class="st11" x1="315.9" y1="320.4" x2="315.9" y2="363.1"/>
<polygon class="st0" points="353,488.3 321.2,565.9 382.6,533.8 430.3,565.9 483.8,534.9 515.6,565.9 557.7,527.1 595.2,565.9 
	563.4,488.3 552,463.9 516.8,486.1 482.6,463.9 432.6,487.2 396.8,470.2 "/>
<polygon class="st19" points="490.1,272.5 478.9,478.2 445.2,491.4 411.7,479.6 398.8,275.6 437.8,293.7 "/>
<line class="st14" x1="357.7" y1="273.4" x2="398.7" y2="275.4"/>
<line class="st29" x1="400.5" y1="479" x2="381.7" y2="534.4"/>
<line class="st29" x1="478.7" y1="479.4" x2="484.7" y2="534.4"/>
<line class="st29" x1="557.7" y1="527.4" x2="545.2" y2="489.5"/>
<polyline class="st19" points="533.7,271.4 539.7,271.4 568.7,51.4 484.7,55.4 489.7,272.4 "/>
<polygon class="st19" points="525.7,486.4 478.7,479.4 489.7,272.4 533.7,271.4 557.7,491.4 "/>
<line class="st21" x1="437.7" y1="293.4" x2="444.7" y2="491.4"/>
<polygon class="st10" points="304.8,129.7 289,129.7 273.2,129.7 273.2,94.1 304.8,94.1 "/>
<line class="st11" x1="288.8" y1="94.3" x2="288.8" y2="129.9"/>
<polygon class="st10" points="353.1,129.7 337.3,129.7 321.5,129.7 321.5,94.1 353.1,94.1 "/>
<line class="st11" x1="337" y1="94.3" x2="337" y2="129.9"/>
<polygon class="st10" points="304.8,195.7 289,195.7 273.2,195.7 273.2,160.1 304.8,160.1 "/>
<line class="st11" x1="288.8" y1="160.3" x2="288.8" y2="195.9"/>
<polygon class="st10" points="353.1,195.7 337.3,195.7 321.5,195.7 321.5,160.1 353.1,160.1 "/>
<line class="st11" x1="337" y1="160.3" x2="337" y2="195.9"/>
<polygon class="st10" points="305.8,258.7 290,258.7 274.2,258.7 274.2,223.1 305.8,223.1 "/>
<line class="st11" x1="289.8" y1="223.3" x2="289.8" y2="258.9"/>
<polygon class="st10" points="354.1,258.7 338.3,258.7 322.5,258.7 322.5,223.1 354.1,223.1 "/>
<line class="st11" x1="338" y1="223.3" x2="338" y2="258.9"/>
<polygon class="st30" points="527.2,465.7 512.7,465.7 498.2,465.7 498.2,433.1 527.2,433.1 "/>
<line class="st31" x1="512.5" y1="433.3" x2="512.5" y2="465.9"/>
<polygon class="st30" points="527.2,402.7 512.7,402.7 498.2,402.7 498.2,370.1 527.2,370.1 "/>
<line class="st31" x1="512.5" y1="370.3" x2="512.5" y2="402.9"/>
<polygon class="st30" points="527.2,337.7 512.7,337.7 498.2,337.7 498.2,305.1 527.2,305.1 "/>
<line class="st31" x1="512.5" y1="305.3" x2="512.5" y2="337.9"/>
<polygon class="st30" points="529.2,247.7 514.7,247.7 500.2,247.7 500.2,215.1 529.2,215.1 "/>
<line class="st31" x1="514.5" y1="215.3" x2="514.5" y2="247.9"/>
<polygon class="st30" points="534.2,179.7 519.7,179.7 505.2,179.7 505.2,147.1 534.2,147.1 "/>
<line class="st31" x1="519.5" y1="147.3" x2="519.5" y2="179.9"/>
<polygon class="st30" points="541.2,110.7 526.7,110.7 512.2,110.7 512.2,78.1 541.2,78.1 "/>
<line class="st31" x1="526.5" y1="78.3" x2="526.5" y2="110.9"/>
<polyline class="st14" points="357.5,273.4 335.7,55.4 394.7,55.4 438.7,37.4 484.7,55.4 489.7,272.4 437.7,293.4 398.8,283.1 "/>
<line class="st19" x1="394.7" y1="55.4" x2="398.7" y2="283.4"/>
<line class="st21" x1="438.7" y1="37.4" x2="437.7" y2="293.4"/>
<polygon class="st19" points="356.7,459.6 325.9,271.6 398.8,275.6 411.7,479.6 363.8,477 "/>
<polygon class="st30" points="398.2,462.7 383.7,462.7 369.2,462.7 369.2,430.1 398.2,430.1 "/>
<line class="st31" x1="383.5" y1="430.3" x2="383.5" y2="462.9"/>
<polygon class="st30" points="388.2,397.7 373.7,397.7 359.2,397.7 359.2,365.1 388.2,365.1 "/>
<line class="st31" x1="373.5" y1="365.3" x2="373.5" y2="397.9"/>
<polygon class="st30" points="378.2,328.7 363.7,328.7 349.2,328.7 349.2,296.1 378.2,296.1 "/>
<line class="st31" x1="363.5" y1="296.3" x2="363.5" y2="328.9"/>
<polygon class="st30" points="392.2,247.7 377.7,247.7 363.2,247.7 363.2,215.1 392.2,215.1 "/>
<line class="st31" x1="377.5" y1="215.3" x2="377.5" y2="247.9"/>
<polygon class="st30" points="388.2,179.7 373.7,179.7 359.2,179.7 359.2,147.1 388.2,147.1 "/>
<line class="st31" x1="373.5" y1="147.3" x2="373.5" y2="179.9"/>
<polygon class="st30" points="383.2,110.7 368.7,110.7 354.2,110.7 354.2,78.1 383.2,78.1 "/>
<line class="st31" x1="368.5" y1="78.3" x2="368.5" y2="110.9"/>
<polygon class="st30" points="417.2,432.9 419.2,462.9 436.2,471.9 436.2,439.9 "/>
<line class="st27" x1="426.7" y1="466.4" x2="425.7" y2="436.4"/>
<polygon class="st30" points="414.2,369.9 416.2,399.9 433.2,408.9 433.2,376.9 "/>
<line class="st27" x1="423.7" y1="403.4" x2="422.7" y2="373.4"/>
<polygon class="st30" points="411.2,301.9 413.2,331.9 430.2,340.9 430.2,308.9 "/>
<line class="st27" x1="420.7" y1="335.4" x2="419.7" y2="305.4"/>
<polygon class="st30" points="408.2,247.9 428.2,252.9 428.2,222.9 408.2,218.9 "/>
<line class="st27" x1="418.2" y1="220.9" x2="418.2" y2="249.9"/>
<polygon class="st30" points="408.2,180.9 428.2,185.9 428.2,155.9 408.2,151.9 "/>
<line class="st27" x1="418.2" y1="153.9" x2="418.2" y2="182.9"/>
<polygon class="st30" points="472.2,431.9 470.2,461.9 453.2,470.9 453.2,438.9 "/>
<line class="st27" x1="462.7" y1="465.4" x2="463.7" y2="435.4"/>
<polygon class="st30" points="475.2,368.9 473.2,398.9 456.2,407.9 456.2,375.9 "/>
<line class="st27" x1="465.7" y1="402.4" x2="466.7" y2="372.4"/>
<polygon class="st30" points="478.2,300.9 476.2,330.9 459.2,339.9 459.2,307.9 "/>
<line class="st27" x1="468.7" y1="334.4" x2="469.7" y2="304.4"/>
<polygon class="st30" points="474.2,245.9 454.2,250.9 454.2,220.9 474.2,216.9 "/>
<line class="st27" x1="464.2" y1="218.9" x2="464.2" y2="247.9"/>
<polygon class="st30" points="474.2,178.9 454.2,183.9 454.2,153.9 474.2,149.9 "/>
<line class="st27" x1="464.2" y1="151.9" x2="464.2" y2="180.9"/>
<path class="st30" d="M473.2,83.9l-20-4c0,38,0,38,0,38l20-4V83.9"/>
<line class="st30" x1="463.2" y1="115.9" x2="463.2" y2="81.9"/>
<path class="st30" d="M407.2,81.9l20-4c0,38,0,38,0,38l-20-4V81.9"/>
<line class="st30" x1="417.2" y1="113.9" x2="417.2" y2="79.9"/>
<polygon class="st6" points="593.2,446.5 616.3,456.9 617.1,415.9 593.2,406.2 "/>
<line class="st6" x1="604.4" y1="411.4" x2="604.4" y2="451.7"/>
<polygon class="st6" points="594.9,387.6 618,398.1 618.8,357 594.9,347.3 "/>
<line class="st6" x1="606.1" y1="352.6" x2="606.1" y2="392.9"/>
<polygon class="st6" points="595.8,328.1 618.9,338.5 619.6,297.5 595.8,287.8 "/>
<line class="st6" x1="607" y1="293" x2="607" y2="333.3"/>
<polygon class="st6" points="597.4,265.8 620.5,276.2 621.3,235.2 597.4,225.5 "/>
<line class="st6" x1="608.6" y1="230.7" x2="608.6" y2="271"/>
<polygon class="st6" points="599.6,205.6 622.7,216 623.4,175 599.6,165.3 "/>
<line class="st6" x1="610.8" y1="170.5" x2="610.8" y2="210.8"/>
<polygon class="st6" points="602.2,143.2 625.3,153.7 626.1,112.6 602.2,102.9 "/>
<line class="st6" x1="613.4" y1="108.1" x2="613.4" y2="148.4"/>
<polygon class="st6" points="569.6,666.3 607.3,680.9 604.8,615.6 566,602.3 "/>
<line class="st6" x1="585.1" y1="609.6" x2="587" y2="673.7"/>
<polygon class="st6" points="695.1,434.5 672,444.9 671.2,403.9 695.1,394.2 "/>
<line class="st6" x1="683.9" y1="399.4" x2="683.9" y2="439.7"/>
<polygon class="st6" points="695.1,380.5 672,390.9 671.2,349.9 695.1,340.2 "/>
<line class="st6" x1="683.9" y1="345.4" x2="683.9" y2="385.7"/>
<polygon class="st6" points="696.1,324.5 673,334.9 672.2,293.9 696.1,284.2 "/>
<line class="st6" x1="684.9" y1="289.4" x2="684.9" y2="329.7"/>
<polygon class="st6" points="697.1,265.5 674,275.9 673.2,234.9 697.1,225.2 "/>
<line class="st6" x1="685.9" y1="230.4" x2="685.9" y2="270.7"/>
<polygon class="st6" points="698.1,205.5 675,215.9 674.2,174.9 698.1,165.2 "/>
<line class="st6" x1="686.9" y1="170.4" x2="686.9" y2="210.7"/>
<polygon class="st6" points="697.1,143.5 674,153.9 673.2,112.9 697.1,103.2 "/>
<line class="st6" x1="685.9" y1="108.4" x2="685.9" y2="148.7"/>
<polygon class="st6" points="739.1,417.5 716,427.9 715.2,386.9 739.1,377.2 "/>
<line class="st6" x1="727.9" y1="382.4" x2="727.9" y2="422.7"/>
<polygon class="st6" points="739.1,363.5 716,373.9 715.2,332.9 739.1,323.2 "/>
<line class="st6" x1="727.9" y1="328.4" x2="727.9" y2="368.7"/>
<polygon class="st6" points="738.1,308.5 715,318.9 714.2,277.9 738.1,268.2 "/>
<line class="st6" x1="726.9" y1="273.4" x2="726.9" y2="313.7"/>
<polygon class="st6" points="739.1,249.5 716,259.9 715.2,218.9 739.1,209.2 "/>
<line class="st6" x1="727.9" y1="214.4" x2="727.9" y2="254.7"/>
<polygon class="st6" points="740.1,189.5 717,199.9 716.2,158.9 740.1,149.2 "/>
<line class="st6" x1="728.9" y1="154.4" x2="728.9" y2="194.7"/>
<polygon class="st6" points="739.1,127.5 716,137.9 715.2,96.9 739.1,87.2 "/>
<line class="st6" x1="727.9" y1="92.4" x2="727.9" y2="132.7"/>
<polygon class="st6" points="690.8,539 662.1,551.9 661.2,501.1 690.8,489.1 "/>
<line class="st6" x1="676.9" y1="495.6" x2="676.9" y2="545.5"/>
<polygon class="st6" points="694.8,639 666.1,651.9 665.2,601.1 694.8,589.1 "/>
<line class="st6" x1="680.9" y1="595.6" x2="680.9" y2="645.5"/>
<polygon class="st30" points="839.2,650.4 865.2,657.9 865.2,612.9 839.2,606.9 "/>
<line class="st27" x1="852.2" y1="609.9" x2="852.2" y2="653.4"/>
<polygon class="st30" points="1000.2,638.4 974.2,645.9 974.2,600.9 1000.2,594.9 "/>
<line class="st27" x1="987.2" y1="597.9" x2="987.2" y2="641.4"/>
<polygon class="st30" points="841.2,578.4 867.2,585.9 867.2,540.9 841.2,534.9 "/>
<line class="st27" x1="854.2" y1="537.9" x2="854.2" y2="581.4"/>
<polygon class="st30" points="940.2,657.6 922.7,657.6 905.2,657.6 905.2,615.9 940.2,615.9 "/>
<line class="st31" x1="922.4" y1="616.2" x2="922.4" y2="657.9"/>
<polygon class="st30" points="940.2,588.6 922.7,588.6 905.2,588.6 905.2,546.9 940.2,546.9 "/>
<line class="st31" x1="922.4" y1="547.2" x2="922.4" y2="588.9"/>
<path class="st19" d="M992.2,262.1l36,293.6c-18.4,12.4-42.6,24.2-72,28c-109.6,13.9-188.9-97.1-193.6-103.9l0.1-195.9
	c21.6,20.8,81.9,72.8,168,75.5c22.2,0.7,42.1-2,59-6"/>
<polygon class="st30" points="777.2,565.9 783.2,523.9 806.2,527.9 806.2,573.9 791.7,569.9 "/>
<path class="st27" d="M790.9,605.6"/>
<line class="st30" x1="794.2" y1="525.9" x2="792.2" y2="569.9"/>
<polygon class="st30" points="772.2,636.9 778.2,594.9 801.2,598.9 801.2,644.9 786.7,640.9 "/>
<line class="st30" x1="789.2" y1="596.9" x2="787.2" y2="640.9"/>
<polygon class="st30" points="780.2,474.4 806.2,481.9 806.2,436.9 780.2,430.9 "/>
<line class="st27" x1="793.2" y1="433.9" x2="793.2" y2="477.4"/>
<polygon class="st30" points="844.2,517.4 870.2,524.9 870.2,479.9 844.2,473.9 "/>
<line class="st27" x1="857.2" y1="476.9" x2="857.2" y2="520.4"/>
<polygon class="st30" points="1001.2,528.4 975.2,535.9 975.2,490.9 1001.2,484.9 "/>
<line class="st27" x1="988.2" y1="487.9" x2="988.2" y2="531.4"/>
<polygon class="st30" points="940.2,542.6 922.7,542.6 905.2,542.6 905.2,500.9 940.2,500.9 "/>
<line class="st31" x1="922.4" y1="501.2" x2="922.4" y2="542.9"/>
<polygon class="st30" points="1000.2,446.4 974.2,453.9 974.2,408.9 1000.2,402.9 "/>
<line class="st27" x1="987.2" y1="405.9" x2="987.2" y2="449.4"/>
<polygon class="st30" points="939.2,455.6 921.7,455.6 904.2,455.6 904.2,413.9 939.2,413.9 "/>
<line class="st31" x1="921.4" y1="414.2" x2="921.4" y2="455.9"/>
<polygon class="st30" points="1058.2,615.4 1084.2,622.9 1084.2,577.9 1058.2,571.9 "/>
<line class="st27" x1="1071.2" y1="574.9" x2="1071.2" y2="618.4"/>
<polygon class="st30" points="1045.2,519.4 1071.2,526.9 1071.2,481.9 1045.2,475.9 "/>
<line class="st27" x1="1058.2" y1="478.9" x2="1058.2" y2="522.4"/>
<polygon class="st30" points="1105.2,535.4 1131.2,542.9 1131.2,497.9 1105.2,491.9 "/>
<line class="st27" x1="1118.2" y1="494.9" x2="1118.2" y2="538.4"/>
<polygon class="st30" points="1116.2,636.4 1142.2,643.9 1142.2,598.9 1116.2,592.9 "/>
<line class="st27" x1="1129.2" y1="595.9" x2="1129.2" y2="639.4"/>
<polygon class="st30" points="1286.2,634.4 1260.2,641.9 1260.2,596.9 1286.2,590.9 "/>
<line class="st27" x1="1273.2" y1="593.9" x2="1273.2" y2="637.4"/>
<polygon class="st30" points="1271.2,539.4 1245.2,546.9 1245.2,501.9 1271.2,495.9 "/>
<line class="st27" x1="1258.2" y1="498.9" x2="1258.2" y2="542.4"/>
<polygon class="st30" points="1206.2,551.6 1188.7,551.6 1171.2,551.6 1171.2,509.9 1206.2,509.9 "/>
<line class="st31" x1="1188.4" y1="510.2" x2="1188.4" y2="551.9"/>
<polygon class="st30" points="1218.2,651.6 1200.7,651.6 1183.2,651.6 1183.2,609.9 1218.2,609.9 "/>
<line class="st31" x1="1200.4" y1="610.2" x2="1200.4" y2="651.9"/>
<path class="st32" d="M1004.4,355.6c31.8,15.6,96.8,41.8,178.4,32.8c31.8-3.5,58.8-11.6,80-20"/>
<polygon class="st10" points="1391.4,571.4 1375.2,571.4 1359,571.4 1359,529.3 1391.4,529.3 "/>
<line class="st11" x1="1375" y1="529.6" x2="1375" y2="571.7"/>
<polygon class="st10" points="1391.4,637.9 1375.2,637.9 1359,637.9 1359,595.9 1391.4,595.9 "/>
<line class="st11" x1="1375" y1="596.2" x2="1375" y2="638.2"/>
<polygon class="st10" points="1392.2,438.8 1376,438.8 1359.7,438.8 1359.7,396.8 1392.2,396.8 "/>
<line class="st11" x1="1375.7" y1="397.1" x2="1375.7" y2="439.1"/>
<polygon class="st10" points="1392.2,505.4 1376,505.4 1359.7,505.4 1359.7,463.4 1392.2,463.4 "/>
<line class="st11" x1="1375.7" y1="463.7" x2="1375.7" y2="505.7"/>
<polygon class="st10" points="1390.7,304.5 1374.4,304.5 1358.2,304.5 1358.2,262.5 1390.7,262.5 "/>
<line class="st11" x1="1374.2" y1="262.8" x2="1374.2" y2="304.8"/>
<polygon class="st10" points="1390.7,371.1 1374.4,371.1 1358.2,371.1 1358.2,329 1390.7,329 "/>
<line class="st11" x1="1374.2" y1="329.3" x2="1374.2" y2="371.4"/>
<polygon class="st10" points="1391.4,172 1375.2,172 1359,172 1359,129.9 1391.4,129.9 "/>
<line class="st11" x1="1375" y1="130.2" x2="1375" y2="172.2"/>
<polygon class="st10" points="1391.4,238.5 1375.2,238.5 1359,238.5 1359,196.5 1391.4,196.5 "/>
<line class="st11" x1="1375" y1="196.8" x2="1375" y2="238.8"/>
<polygon class="st10" points="1455.4,571.4 1439.2,571.4 1423,571.4 1423,529.3 1455.4,529.3 "/>
<line class="st11" x1="1439" y1="529.6" x2="1439" y2="571.7"/>
<polygon class="st10" points="1455.4,637.9 1439.2,637.9 1423,637.9 1423,595.9 1455.4,595.9 "/>
<line class="st11" x1="1439" y1="596.2" x2="1439" y2="638.2"/>
<polygon class="st10" points="1456.2,438.8 1440,438.8 1423.7,438.8 1423.7,396.8 1456.2,396.8 "/>
<line class="st11" x1="1439.7" y1="397.1" x2="1439.7" y2="439.1"/>
<polygon class="st10" points="1456.2,505.4 1440,505.4 1423.7,505.4 1423.7,463.4 1456.2,463.4 "/>
<line class="st11" x1="1439.7" y1="463.7" x2="1439.7" y2="505.7"/>
<polygon class="st10" points="1454.7,304.5 1438.4,304.5 1422.2,304.5 1422.2,262.5 1454.7,262.5 "/>
<line class="st11" x1="1438.2" y1="262.8" x2="1438.2" y2="304.8"/>
<polygon class="st10" points="1454.7,371.1 1438.4,371.1 1422.2,371.1 1422.2,329 1454.7,329 "/>
<line class="st11" x1="1438.2" y1="329.3" x2="1438.2" y2="371.4"/>
<polygon class="st10" points="1455.4,172 1439.2,172 1423,172 1423,129.9 1455.4,129.9 "/>
<line class="st11" x1="1439" y1="130.2" x2="1439" y2="172.2"/>
<polygon class="st10" points="1455.4,238.5 1439.2,238.5 1423,238.5 1423,196.5 1455.4,196.5 "/>
<line class="st11" x1="1439" y1="196.8" x2="1439" y2="238.8"/>
<polygon class="st10" points="1518.4,571.4 1502.2,571.4 1486,571.4 1486,529.3 1518.4,529.3 "/>
<line class="st11" x1="1502" y1="529.6" x2="1502" y2="571.7"/>
<polygon class="st10" points="1518.4,637.9 1502.2,637.9 1486,637.9 1486,595.9 1518.4,595.9 "/>
<line class="st11" x1="1502" y1="596.2" x2="1502" y2="638.2"/>
<polygon class="st10" points="1519.2,438.8 1503,438.8 1486.7,438.8 1486.7,396.8 1519.2,396.8 "/>
<line class="st11" x1="1502.7" y1="397.1" x2="1502.7" y2="439.1"/>
<polygon class="st10" points="1519.2,505.4 1503,505.4 1486.7,505.4 1486.7,463.4 1519.2,463.4 "/>
<line class="st11" x1="1502.7" y1="463.7" x2="1502.7" y2="505.7"/>
<polygon class="st10" points="1517.7,304.5 1501.4,304.5 1485.2,304.5 1485.2,262.5 1517.7,262.5 "/>
<line class="st11" x1="1501.2" y1="262.8" x2="1501.2" y2="304.8"/>
<polygon class="st10" points="1517.7,371.1 1501.4,371.1 1485.2,371.1 1485.2,329 1517.7,329 "/>
<line class="st11" x1="1501.2" y1="329.3" x2="1501.2" y2="371.4"/>
<polygon class="st10" points="1518.4,172 1502.2,172 1486,172 1486,129.9 1518.4,129.9 "/>
<line class="st11" x1="1502" y1="130.2" x2="1502" y2="172.2"/>
<polygon class="st10" points="1518.4,238.5 1502.2,238.5 1486,238.5 1486,196.5 1518.4,196.5 "/>
<line class="st11" x1="1502" y1="196.8" x2="1502" y2="238.8"/>
<polygon class="st10" points="1581.4,571.4 1565.2,571.4 1549,571.4 1549,529.3 1581.4,529.3 "/>
<line class="st11" x1="1565" y1="529.6" x2="1565" y2="571.7"/>
<polygon class="st10" points="1581.4,637.9 1565.2,637.9 1549,637.9 1549,595.9 1581.4,595.9 "/>
<line class="st11" x1="1565" y1="596.2" x2="1565" y2="638.2"/>
<polygon class="st10" points="1582.2,438.8 1566,438.8 1549.7,438.8 1549.7,396.8 1582.2,396.8 "/>
<line class="st11" x1="1565.7" y1="397.1" x2="1565.7" y2="439.1"/>
<polygon class="st10" points="1582.2,505.4 1566,505.4 1549.7,505.4 1549.7,463.4 1582.2,463.4 "/>
<line class="st11" x1="1565.7" y1="463.7" x2="1565.7" y2="505.7"/>
<polygon class="st10" points="1580.7,304.5 1564.4,304.5 1548.2,304.5 1548.2,262.5 1580.7,262.5 "/>
<line class="st11" x1="1564.2" y1="262.8" x2="1564.2" y2="304.8"/>
<polygon class="st10" points="1580.7,371.1 1564.4,371.1 1548.2,371.1 1548.2,329 1580.7,329 "/>
<line class="st11" x1="1564.2" y1="329.3" x2="1564.2" y2="371.4"/>
<polygon class="st10" points="1581.4,172 1565.2,172 1549,172 1549,129.9 1581.4,129.9 "/>
<line class="st11" x1="1565" y1="130.2" x2="1565" y2="172.2"/>
<polygon class="st10" points="1581.4,238.5 1565.2,238.5 1549,238.5 1549,196.5 1581.4,196.5 "/>
<line class="st11" x1="1565" y1="196.8" x2="1565" y2="238.8"/>
<polygon class="st10" points="1638.4,571.4 1622.2,571.4 1606,571.4 1606,529.3 1638.4,529.3 "/>
<line class="st11" x1="1622" y1="529.6" x2="1622" y2="571.7"/>
<polygon class="st10" points="1638.4,637.9 1622.2,637.9 1606,637.9 1606,595.9 1638.4,595.9 "/>
<line class="st11" x1="1622" y1="596.2" x2="1622" y2="638.2"/>
<polygon class="st10" points="1639.2,438.8 1623,438.8 1606.7,438.8 1606.7,396.8 1639.2,396.8 "/>
<line class="st11" x1="1622.7" y1="397.1" x2="1622.7" y2="439.1"/>
<polygon class="st10" points="1639.2,505.4 1623,505.4 1606.7,505.4 1606.7,463.4 1639.2,463.4 "/>
<line class="st11" x1="1622.7" y1="463.7" x2="1622.7" y2="505.7"/>
<polygon class="st10" points="1637.7,304.5 1621.4,304.5 1605.2,304.5 1605.2,262.5 1637.7,262.5 "/>
<line class="st11" x1="1621.2" y1="262.8" x2="1621.2" y2="304.8"/>
<polygon class="st10" points="1637.7,371.1 1621.4,371.1 1605.2,371.1 1605.2,329 1637.7,329 "/>
<line class="st11" x1="1621.2" y1="329.3" x2="1621.2" y2="371.4"/>
<polygon class="st10" points="1638.4,172 1622.2,172 1606,172 1606,129.9 1638.4,129.9 "/>
<line class="st11" x1="1622" y1="130.2" x2="1622" y2="172.2"/>
<polygon class="st10" points="1638.4,238.5 1622.2,238.5 1606,238.5 1606,196.5 1638.4,196.5 "/>
<line class="st11" x1="1622" y1="196.8" x2="1622" y2="238.8"/>
<polyline class="st0" points="989.5,324.5 1003.2,352.9 1017.8,244.4 973.6,260.9 978.2,305.9 "/>
<path class="st19" d="M763.2,280.6c-2.7,48.1,101,89.1,168.7,101.6c29.5,5.5,59.1,10.9,68.9-3.8c14.7-21.9-20.8-79-61.7-111.1
	c-5.6-4.4-85.2-65.3-144.2-28.2C788,243.6,764.4,258.3,763.2,280.6z"/>
<path class="st19" d="M961.7,339.4c0.2,12.6-25.9,5.9-41,6c-74.4,0.6-126.4-54.6-140-70l12-138l103,76c9.2,6.2,22.8,13.2,40,15
	c10.3,1.1,13.8-0.6,18,1C964.7,233.7,972.5,257.7,961.7,339.4"/>
<ellipse transform="matrix(0.5 -0.866 0.866 0.5 280.1241 848.9785)" class="st22" cx="875.3" cy="181.9" rx="29.2" ry="93.8"/>
<polygon class="st33" points="1857.2,445.9 1865.2,485.9 1839.2,489.9 1830.2,448.9 "/>
<line class="st33" x1="1844.2" y1="446.9" x2="1852.2" y2="487.9"/>
<polygon class="st33" points="1805.2,451.9 1813.2,491.9 1787.2,495.9 1778.2,454.9 "/>
<line class="st33" x1="1792.2" y1="452.9" x2="1800.2" y2="493.9"/>
<polygon class="st33" points="1841.2,374.9 1849.2,414.9 1823.2,418.9 1814.2,377.9 "/>
<line class="st33" x1="1828.2" y1="375.9" x2="1836.2" y2="416.9"/>
<polygon class="st33" points="1789.2,380.9 1797.2,420.9 1771.2,424.9 1762.2,383.9 "/>
<line class="st33" x1="1776.2" y1="381.9" x2="1784.2" y2="422.9"/>
<polygon class="st33" points="1853.8,288.5 1838.2,334.7 1810.3,335.9 1824.8,288.5 "/>
<line class="st33" x1="1839.3" y1="288.5" x2="1824.8" y2="334.7"/>
<polygon class="st33" points="1793.6,292.5 1778,338.7 1750.2,339.9 1764.7,292.5 "/>
<line class="st33" x1="1779.2" y1="292.5" x2="1764.7" y2="338.7"/>
<polygon class="st33" points="1881,202.9 1865.5,249.2 1837.6,250.4 1852.1,202.9 "/>
<line class="st33" x1="1866.6" y1="202.9" x2="1852.1" y2="249.2"/>
<polygon class="st33" points="1815.9,207 1800.3,253.3 1772.5,254.5 1787,207 "/>
<line class="st33" x1="1801.4" y1="207" x2="1787" y2="253.3"/>
<polygon class="st33" points="1906.2,123.9 1890.6,170.2 1862.8,171.4 1877.2,123.9 "/>
<line class="st33" x1="1891.7" y1="123.9" x2="1877.2" y2="170.2"/>
<polygon class="st33" points="1837.1,129.9 1821.5,176.2 1793.6,177.4 1808.1,129.9 "/>
<line class="st33" x1="1822.6" y1="129.9" x2="1808.1" y2="176.2"/>
</svg>
